<svg id="Слой_1" data-name="Слой 1" xmlns="http://www.w3.org/2000/svg" viewBox="0 0 434.42 470.22">
  <defs>
    <style>
      .cls-1 {
        fill: #4f3332;
      }

      .cls-2 {
        fill: #fdfccb;
      }

      .cls-3 {
        fill: #4f4f4f;
      }

      .cls-4 {
        fill: #3d3c3c;
      }

      .cls-5 {
        fill: #848484;
      }

      .cls-6 {
        fill: #a2c96c;
      }

      .cls-7 {
        fill: #232323;
      }

      .cls-8 {
        fill: #fe0000;
      }

      .cls-9 {
        fill: #92ba5a;
      }

      .cls-10 {
        fill: #191919;
      }

      .cls-11 {
        fill: #222;
      }

      .cls-12 {
        fill: #587036;
      }

      .cls-13 {
        fill: #fefefe;
      }

      .cls-14 {
        fill: #503433;
      }

      .cls-15 {
        fill: #fdfdfd;
      }

      .cls-16 {
        fill: #454545;
      }

      .cls-17 {
        fill: #cacaca;
      }

      .cls-18 {
        fill: #4d4b4c;
      }

      .cls-19 {
        fill: #323232;
      }

      .cls-20 {
        fill: #343434;
      }

      .cls-21 {
        fill: #fefccb;
      }

      .cls-22 {
        fill: #fcf9c8;
      }

      .cls-23 {
        fill: #fdfcca;
      }

      .cls-24 {
        fill: #fefdcb;
      }

      .cls-25 {
        fill: #f8f6c6;
      }

      .cls-26 {
        fill: #666;
      }

      .cls-27 {
        fill: #8a8a8a;
      }

      .cls-28 {
        fill: #586f36;
      }

      .cls-29 {
        fill: #fd0000;
      }

      .cls-30 {
        fill: #d2d2d2;
      }

      .cls-31 {
        fill: #e4e0b5;
      }

      .cls-32 {
        fill: #010000;
      }

      .cls-33 {
        fill: #7ca246;
      }

      .cls-34 {
        fill: #7ca245;
      }

      .cls-35 {
        fill: #7da346;
      }

      .cls-36 {
        fill: #7ba144;
      }

      .cls-37 {
        fill: #4f4d4e;
      }

      .cls-38 {
        fill: #504e4e;
      }

      .cls-39 {
        fill: #010100;
      }

      .cls-40 {
        fill: #f3f1c2;
      }

      .cls-41 {
        fill: #fcfbca;
      }

      .cls-42 {
        fill: #f6f6f6;
      }

      .cls-43 {
        fill: #e84f47;
      }

      .cls-44 {
        fill: #000100;
      }
    </style>
  </defs>
  <title>111</title>
  <g>
    <path d="M382.68,67.45c1.15-.17,2.21.32,3.33.39.64-.18.75-.76,1-1.27,1-2.24,2.23-4.28,4.66-5.26a1.36,1.36,0,0,0,.92-1.44c0-.17,0-.34,0-.5-.22-11.65.53-23.29.35-34.94,0-1.13-.22-2.22-.23-3.34a2.93,2.93,0,0,1,1.62-.84,31.06,31.06,0,0,1,13.16,0c1.19.25,1.56.94,1.56,2.16-.09,11.65-.11,23.31-.19,35a2.46,2.46,0,0,0,1.42,2.6,11,11,0,0,1,5.81,10.13q0,33-.26,66.06a5.49,5.49,0,0,0,1.34,3.78,211.53,211.53,0,0,1,42.64,86.63,208.71,208.71,0,0,1,5,63.22q-5.33,71.61-52.57,125.71c-30,34.28-67.42,56.78-111.64,67.84a209.38,209.38,0,0,1-64.14,6C178.5,485.8,129.25,463.21,89.2,421.19c-26.47-27.76-43.93-60.58-52.73-97.92a208,208,0,0,1-5.28-58.7C33.54,219,48.94,178.4,77,142.53c2.07-2.65,4.27-5.19,6.4-7.78a.37.37,0,0,1,.54.17,2.22,2.22,0,0,1,.27,1.13c0,6.53.11,13-.06,19.58-.4,1.38-1.48,2.33-2.27,3.46q-6,8.52-11.25,17.59a5,5,0,0,1-.95,1.36,15.76,15.76,0,0,1-3.94,1.32,16.27,16.27,0,0,0-2.6,1.14,15.75,15.75,0,0,0-4.21,2c-2.92,2-4.76,4.61-4.68,8.38.12,5.24-.12,10.5.35,15.74.1,1.2.66,2.25.81,3.42a19.56,19.56,0,0,1-1,3.89,196.48,196.48,0,0,0-8.57,41.21,188.34,188.34,0,0,0-.91,26.33,199.21,199.21,0,0,0,12.6,63.32c1.35,3.56,2.84,7.06,4.31,10.58a8.62,8.62,0,0,0,1.26,2.3,11.52,11.52,0,0,0,1.44-2.93c2.28-5.73,4.65-11.41,7.3-17,.12-.26.23-.51.36-.77,1.07-2.18,1.65-2.23,3-.22.54.78,1.07,1.57,1.65,2.45,0-2.38,0-4.67,0-7s.13-4.71,0-7.05c-.54-7.82-.36-15.66-.9-23.48-.41-6-.68-11.95-1.44-17.9-.36-2.83-1-5.61-1.4-8.44a32.32,32.32,0,0,1,.56-11.36,97.38,97.38,0,0,1,6.83-20.68,34.6,34.6,0,0,1,3.08-5,40.42,40.42,0,0,1,2.75-3.48,39.64,39.64,0,0,1,6.11-6,2.86,2.86,0,0,0,1-2.39c.09-2.51-.27-5,.22-7.53.68-.93,1.71-.8,2.62-.73,5.87.4,11.75.42,17.62.28,7.15-.17,14.31-.44,21.43-1.17a4.69,4.69,0,0,1,1.83,0c.89.32.85,1.11.86,1.82,0,6.28.05,12.55,0,18.83,0,1.6-.52,3.2-.2,4.82.47.3.76-.08,1.06-.27,12.26-7.77,24.48-15.59,36.58-23.59.18-.12.36-.26.56-.37,1-.58,1.06-1.09,0-1.78a34.61,34.61,0,0,1-5.26-4.16,3.3,3.3,0,0,1-1.07-1.48,1,1,0,0,1,.48-1,18.82,18.82,0,0,0,4.66-4,1.89,1.89,0,0,1,1.32.65,37.39,37.39,0,0,0,10.54,7c10.73,4.41,21.35,9.07,32.33,12.81A133.56,133.56,0,0,0,244.16,233a35.46,35.46,0,0,0,13.33-1.09c13-3.25,26.12-5.87,39.11-9.06,6.2-1.52,12-3.85,17-8a36.3,36.3,0,0,0,8.28-10.48,15.18,15.18,0,0,1,1.25-2.18c.37-.46.77-.87,1.39-.33a9.32,9.32,0,0,1,.87,3.69,4.2,4.2,0,0,0,1.8,3.21,1.49,1.49,0,0,1,.43.92c-.82,2.72-2.78,4.69-4.52,6.79a38.87,38.87,0,0,1-8.28,7.38c2.22,1,4.24,1.8,6.25,2.61,9.93,4,19.67,8.42,29.16,13.37a119.52,119.52,0,0,1,10.93,6.26c.51.35,1.07.63,1.26,1.29a14.11,14.11,0,0,1,0,4.72c-.8,1.09-1.51.22-2.13-.18a185.61,185.61,0,0,0-18-10.11c-2.15-1.08-4.41-1.94-6.52-3.1a21.5,21.5,0,0,0-2.42-1.16c-5.19-2.25-10.3-4.68-15.62-6.59-.83-.32-1.6-.78-2.43-1.12-.46-.2-.94-.34-1.41-.52-3.26-1.26-2.94-1.58-5.3,1.53-3.17,4.19-6.19,8.48-9.33,12.69q-1.49,2.13-2.88,4.32c-3.65,5-7,10.15-10.31,15.33-1.82,2.83-3.57,5.7-5.28,8.59-.83,1.44-1.79,2.81-2.51,4.31-4.5,7.63-8.74,15.39-12.84,23.24-1.16,2.24-2.32,4.48-3.54,6.68-.79,1.6-1.48,3.24-2.38,4.78-5.45,10.59-10,21.64-16.05,31.9-.58,1.23-1.4,2.34-1.93,3.6-4.51,8.5-9.16,16.93-13.77,25.38a5.83,5.83,0,0,0-.75,3.67q1.88,15.51,3.63,31c1.38,12.18,2.83,24.35,4.21,36.53,1.18,10.39,2.42,20.78,3.61,31.18.12,1,.51,1.53,1.56,1.49a5.09,5.09,0,0,1,1.5.17,66.37,66.37,0,0,0,10.55,0c3.68-.32,7.36-.11,11-.51,4.89-.54,9.79-.92,14.65-1.66,1,0,1.92-.26,2.88-.37,5.5-.81,10.91-2.09,16.36-3.19.77-.19,1.53-.45,2.29-.69,6.15-1.48,12.15-3.49,18.14-5.51,5.27-1.83,10.4-4,15.47-6.29.94-.49,2-.78,2.91-1.29,5.37-2.59,10.67-5.33,15.78-8.4.91-.53,1.81-1.06,2.67-1.68,1.5-.72,1.95-1.9,2-3.54.06-7.17.59-14.31.89-21.47.25-5.7.53-11.4.79-17.11.26-5.86.47-11.74.9-17.6.19-2.62.22-5.26.31-7.88.14-3.8.37-7.6.49-11.41.2-6,.53-12.07.85-18.1.19-3.69.48-7.38.48-11.08,0-1.23-.18-1.84-1.55-1.27a.92.92,0,0,1-.94-.19c-.31-.81.41-1.07.83-1.43a15.92,15.92,0,0,0,5.74-12.69c0-5.37-1.44-10.5-2.23-15.74-.32-2.1-.67-4.2-1.1-6.28a9.76,9.76,0,0,0-9.5-8.15,2.68,2.68,0,0,1-2-.65c-1.52-4-2.89-8-2.39-12.37a5.13,5.13,0,0,1,4.58-4.69c.49-.09,1-.21,1.47-.34a1.44,1.44,0,0,0,1.23-1.72c-.86-6.26,2.6-10,7.53-12.84,1.27-.9,1.32-2.22,1.32-3.6q0-17.5,0-35a4.94,4.94,0,0,1,.42-2.93,4.44,4.44,0,0,1,3.09-.42c9.81.87,19.65,1,29.49,1,2.18,0,4.33-.47,6.52-.34s2.44.41,2.49,2.47c.06,2.35-.09,4.7.09,7a2.27,2.27,0,0,0,.77,1.07c3.68,2.75,6.48,6.31,9.3,9.87a32.36,32.36,0,0,1,4.85,9.18c1.57,4.79,3.3,9.53,4.48,14.44a38.44,38.44,0,0,1,.38,16.67,139.5,139.5,0,0,0-2.06,18c-.39,5.81-.46,11.63-.74,17.44-.24,5,0,10-.28,14.94-.16,3.18-.39,6.36-.25,9.78.79-.91,1.27-1.79,1.87-2.58,1.14-1.53,1.74-1.51,2.62.18,2,3.78,3.73,7.65,5.32,11.6.76,1.87,1.51,3.73,2.38,5.52.52,0,.54-.43.66-.71A198.43,198.43,0,0,0,449.78,300c.71-5.61,1.14-11.23,1.4-16.89.16-3.58.3-7.16.23-10.74a202.34,202.34,0,0,0-7-49.78c-.81-3-1.65-5.93-2.6-8.86a3.1,3.1,0,0,1-.24-1.65c.05-.15.08-.35.22-.44,2.51-1.51,2.94-3.9,3.1-6.6.3-4.84.84-9.67.16-14.52a23.18,23.18,0,0,0-1.13-4.37,5.15,5.15,0,0,0-2.32-3.16c-3.81-2.68-8.27-3.64-12.62-4.92a8.28,8.28,0,0,1-3.15-1.09c-2.19-3.43-4.17-7-6.42-10.4-.92-1.4-1.78-2.84-3-4.44,0,1.42,0,2.55,0,3.68a39.24,39.24,0,0,1-.28,6.85,2.63,2.63,0,0,0,.3,2.11c.93.71,2.1,1,3,1.8,1.1,1,1.69,2.07,1,3.54-1.51,1.83-3.66,2.54-5.81,3.13a86.8,86.8,0,0,1-16.9,2.47c-4.8.35-9.61.4-14.42.28-9.34-.24-18.64-1-27.74-3.33a21.89,21.89,0,0,1-6.36-2.54,2.8,2.8,0,0,1-1.53-3.07c.61-2.14,2.61-2.58,4.25-3.46,4.21-1.62,8.67-2.12,13.1-2.62a150.18,150.18,0,0,1,20.56-.71,6.06,6.06,0,0,1,1.21.13c2.49.42,5,.13,7.52.43,2.66.31,5.35.52,8,.8,2.38.24,2.39.25,2.39-2.24,0-7.28-.21-14.56.05-21.83.61-17.35.17-34.71.24-52.06,0-5.19-1-10.25-4.08-14.66a10.2,10.2,0,0,0-4.38-3.6c.84,8.38,1.28,16.64,1.66,24.88.39,8.46-2.67,15.56-10,20.45a2.73,2.73,0,0,0-1.78,2.85,1.67,1.67,0,0,1-.33,1.25c-.68.26-1-.31-1.39-.65a3.38,3.38,0,0,0-3.46-1,1.56,1.56,0,0,1-1.69-.36c.11-.73.76-.74,1.26-.91,7.37-2.48,11.51-7.78,13.2-15.18a29.21,29.21,0,0,0,.4-8.66c-.3-4.35-.65-8.69-.82-13-.1-2.51-.21-5-.56-7.52-.79-5.54-4.23-8.8-9.29-10.63-.47-.17-1-.24-1.44-.44-.29-.13-1.43.24-1.29-.15S382.18,67.52,382.68,67.45Z" transform="translate(-30.91 -19.56)"/>
    <path d="M136.17,85c3.43-2,7.25-2.27,11.05-2.29a17.44,17.44,0,0,0,7.53-1.79,211.62,211.62,0,0,1,58.71-18.12,3.12,3.12,0,0,0,2.15-1.4c4.88-6.62,9.71-13.29,14.73-19.82s11.74-10.64,20.25-11a9.92,9.92,0,0,1,9.23,4.78,61,61,0,0,0,9.35,10.75,5.41,5.41,0,0,0,6.28,1.21,47.87,47.87,0,0,0,8.05-4.15,49.87,49.87,0,0,1,5.65-3.3c6.39-3,11.56-1.74,15.81,3.93a47.26,47.26,0,0,1,6,12q2.54,6.69,4.51,13.55a2.49,2.49,0,0,0,1.81,1.9,215.37,215.37,0,0,1,42.89,19.57c1,.57,2.13,1.16,1.81,2.45a62.26,62.26,0,0,0-1.9,11.6c-.34.66-.57.42-.92,1.08-.89.25-1.5-.37-2.14-.77a221,221,0,0,0-20.76-11.38c-4.49-2.17-9.09-4.1-13.73-5.93-.38-.15-.84-.55-1.23-.15s0,.75.07,1.13c.84,3.83,1.73,7.64,2.57,11.48a1.67,1.67,0,0,0,1.36,1.49c1.67.34,2.37,1.51,2.63,3.09.65,4,1.39,8.06,2,12.11a2.41,2.41,0,0,0,2.09,2.22c9.57,2.58,19.15,5.14,28.3,9a39.57,39.57,0,0,1,7,4,6.65,6.65,0,0,1,.65.54c4,3.56,3.49,8.26-1.17,10.94a30.59,30.59,0,0,1-8.34,3.05A95.75,95.75,0,0,1,342.16,149c-4.91.32-9.82.7-14.75.66-1.49,0-1.61.22-.83,1.53a80,80,0,0,1,7.35,15.26,36.14,36.14,0,0,1,2.22,10c-.41,1-1.39,1-2.2,1.22s-1.58.47-2.33.8c-.94.27-1.81,1-2.86.41-.62-1-.37-2.19-.57-3.28-1.15-6.32-3.92-12-6.94-17.57-1.2-2.22-2.53-4.37-3.76-6.56a3.48,3.48,0,0,0-3.06-2c-.17,0-.33-.05-.5-.07-4.39-.49-4.4-.49-5.76,3.63a18.27,18.27,0,0,1-11.29,12.05,50.22,50.22,0,0,1-14.91,3,9.62,9.62,0,0,1-2.26-.35c-.27-.09-.29.17-.22,0l.13,0a40.91,40.91,0,0,0,15,2.42,74.27,74.27,0,0,0,14-1.32c2.15-.41,4.28-.89,6.42-1.33.58-.12,1.39-.4,1.61.35.17.58-.6.86-1.09,1.08a90.21,90.21,0,0,1-13.16,4.56,47.49,47.49,0,0,1-11.79,1.58,33.5,33.5,0,0,1-16.54-4.37c-6.65-3.63-12.33-8.5-17.68-13.8-1.5-2.34-1.21-3.67,1.06-5.15,1.79-1.16,3.64-2.2,5.49-3.22,2.11-1.27,4.35-2.27,6.7-3.46-1.71-.38-3.32-.56-4.89-.88a1.92,1.92,0,0,0-1.79.69c-1.18,1.18-2.36,2.37-3.55,3.55-1.06.93-1.68.44-2.13-.65a4.8,4.8,0,0,1,.63-3.55c.43-.85.4-1.27-.67-1.48-6.42-1.26-12.81-2.7-19.23-4.34,1.71,2.11,3.5,4.06,4.36,6.62a3.76,3.76,0,0,1,.29,2.75q-.6,1.83-2.1.63a38.22,38.22,0,0,1-2.9-3.2,22.09,22.09,0,0,0-3.22-2.89c-1.14-1.07-2.23-2.18-3.35-3.27a20.49,20.49,0,0,0-9.6-5.09c-5.46-1.36-10.86-3-16.2-4.79a2.61,2.61,0,0,0-2.1-.16,30.55,30.55,0,0,0-8.78,6.1c-1.18,1.12-2.27,2.32-3.47,3.42-.34.32-.77.87-1.27.48s-.12-.95.09-1.39a32,32,0,0,1,5.58-8.34c.53-.57,1.1-1.11,1.65-1.67s.49-.95-.28-1.2c-2.66-.87-5.29-1.84-7.93-2.77-1-.35-1.45.06-1.66,1-.46,2.13-1,4.24-1.47,6.38-.88,4.37-3.06,8.16-5.18,12-3.62,6.51-7.69,12.75-11,19.45a59.75,59.75,0,0,0-4.61,12.94,2.87,2.87,0,0,1-.43,1.26c-.16.15-.35.34-.57.32-2.28-.31-4.62-.4-6.68-1.64a5.89,5.89,0,0,1,.34-3.11c1.81-8,5.46-15.12,9.55-22.09,2.63-4.49,5.37-8.92,7.95-13.44a32.46,32.46,0,0,0,3.24-9.12q.62-2.72,1.35-5.38a1.74,1.74,0,0,0-1.22-2.45c-7.16-2.75-14.21-5.75-21.08-9.16a132.68,132.68,0,0,1-12.63-7,2.32,2.32,0,0,0-2.91-.1c-.51.35-1.12.86-1.8.21-.75-1.42-.61-3-1-4.54-1-3.92-2-7.87-3-11.82C135.85,86.54,135.51,85.71,136.17,85Z" transform="translate(-30.91 -19.56)"/>
    <path d="M90.77,21.11c.32-.85,1.16-.85,1.81-1a32.34,32.34,0,0,1,12,0c2.2.42,2.46.84,2.47,3,.06,11.91.13,23.83.15,35.75a2.26,2.26,0,0,0,1.2,2.28,9.39,9.39,0,0,1,4.4,5.71c.26,1,.64,1.16,1.5.88a6.8,6.8,0,0,1,2.65-.3c.24,0,.43,0,.62,0s.09.4-.09.53a6.1,6.1,0,0,1-1.71.65,13.63,13.63,0,0,0-7.65,5.8c-2,2.53-2.06,5.61-2.36,8.58-.73,7.33-.76,14.7-.77,22.06a18.63,18.63,0,0,0,2.4,8.44c1.75,4.87,5.28,8,10,9.86.61.25,1.29.36,1.88.65.33.16.79.36.29.84-2.06.53-3.88-.4-5.76-1-8-4.08-12.13-10.69-12.37-19.63-.17-5.88.52-11.73.87-17.59.18-3.06.34-6.13.7-9.46a10.19,10.19,0,0,0-4.2,3.25c-2.59,3.62-3.57,7.77-4.14,12.1s0,8.6,0,12.9c.05,21.22,0,42.44,0,63.66,0,2.83,0,2.8,2.78,2.47a102.36,102.36,0,0,1,13.55-1c1,0,2-.25,3-.3,9.71-.2,19.38.07,28.93,2a23.31,23.31,0,0,1,4.84,1.4c.89.44,1.8.83,2.65,1.36,1.45.9,1.8,1.89,1.38,3.65-1.27,1.72-3.17,2.46-5.07,3.12A73.93,73.93,0,0,1,131.13,185a153.31,153.31,0,0,1-23.94,1c-7.31-.28-14.63-.66-21.75-2.63a19,19,0,0,1-5-2A2.67,2.67,0,0,1,79,178.45c.34-1.47,1.48-2.17,2.69-2.79.6-.31,1.2-.61,1.78-.94a3.15,3.15,0,0,0,.5-.3c.53-.64.3-1.4.3-2.11,0-15.78-.24-31.58.08-47.36.38-18.31,0-36.61.26-54.91.06-4.61,1.81-8.28,6.4-10.08A1.84,1.84,0,0,0,92.26,58c-.11-5.93.18-11.86-.22-17.79C91.7,35.17,92,30.06,92,25A5,5,0,0,0,90.77,21.11Z" transform="translate(-30.91 -19.56)"/>
    <path class="cls-1" d="M119.71,124.59a18.82,18.82,0,0,1-11.95-8.94c-.31-.53-.75-1-.5-1.69a30.21,30.21,0,0,1-2-5.48,49.73,49.73,0,0,1-.48-10.34c.17-5.63.57-11.24,1.15-16.84a16,16,0,0,1,2-6.88.51.51,0,0,0,0-.61,15,15,0,0,1,9-6c.65-.16.44-.22,0-.4,8.18-.62,15.57,2.57,17.4,11.49a19.12,19.12,0,0,0,1.81,6c.07,2.43,1,4.68,1.51,7,.9,4,2.2,7.85,2.56,11.93a3.61,3.61,0,0,1,.38,2.91c-.77,6.11-3,11.43-8.14,15.23a16.49,16.49,0,0,1-11.75,3A1.24,1.24,0,0,1,119.71,124.59Z" transform="translate(-30.91 -19.56)"/>
    <path class="cls-1" d="M359.08,105.84c.32-.41.17-.41.51-.59a170.74,170.74,0,0,1,7.17-28.62A14.59,14.59,0,0,1,372,69.7c3.3-2.56,7-2.22,10.65-2.25-.16,0-.4,0-.46.13-.29.47.21.21.28.23a14.76,14.76,0,0,1,9.44,6.7,12.62,12.62,0,0,1,1.74,5.87c.34,4.34.49,8.69.76,13,.22,3.73.85,7.45.59,11.18-.54,8.11-3.91,14.6-11.35,18.5a32.16,32.16,0,0,1-4.06,1.49c-2.08,1-4.26.6-6.37.24a15.73,15.73,0,0,1-9.72-6.17,20.5,20.5,0,0,1-4.62-11.7A1.46,1.46,0,0,1,359.08,105.84Z" transform="translate(-30.91 -19.56)"/>
    <path class="cls-2" d="M90.77,21.11c1.46.19,1.73,1.07,1.74,2.44q.08,17.4.32,34.79c0,1.25-.21,1.81-1.56,2.14-3.66.89-6.18,4.68-6.2,9Q85,90.06,85,110.64q-.11,31.35-.22,62.7c0,.75.25,1.66-1,1.67a2.75,2.75,0,0,1-.54-2.19c0-4.72,0-9.45,0-14.17a5.28,5.28,0,0,1,.49-2.42l0-21.47a4.65,4.65,0,0,1-.12-1.82q0-14.56,0-29.14,0-17.08,0-34.18a4.17,4.17,0,0,1,.17-2c.54-4.15,3-6.82,6.66-8.54.46-.47.21-1.06.21-1.58q0-17.33,0-34.65a3.48,3.48,0,0,1,.16-1.81Z" transform="translate(-30.91 -19.56)"/>
    <path class="cls-2" d="M392.69,21.09a1.4,1.4,0,0,1,.73,1.46q-.19,18.89-.36,37.76c0,.44.27,1-.5,1.21-3.16.82-4.41,3.4-5.44,6.1-.33.87-.57,1-1.11.22.82-3,2.14-5.66,5.2-7,.74-.33.86-.91.86-1.64,0-5.83.25-11.67-.09-17.48-.37-6.38-.09-12.75-.24-19.12C391.72,21.92,391.46,21,392.69,21.09Z" transform="translate(-30.91 -19.56)"/>
    <path class="cls-3" d="M90.79,21.06q0,18.87-.08,37.73a1.82,1.82,0,0,1-.1.45l-.21-.14c0-4.7.06-9.4,0-14.09,0-7.51,0-15,0-22.51C90.4,22,90,21.36,90.79,21.06Z" transform="translate(-30.91 -19.56)"/>
    <path class="cls-4" d="M83.74,67.64l-.06,36.13q-.12.27-.24,0-.06-16.93-.12-33.86A3.67,3.67,0,0,1,83.74,67.64Z" transform="translate(-30.91 -19.56)"/>
    <path class="cls-5" d="M83.44,103.77a.49.49,0,0,0,.24,0v26c0,1.67,0,3.35,0,5l-.14,0H83.4q0-14.16,0-28.3C83.36,105.55,83.41,104.66,83.44,103.77Z" transform="translate(-30.91 -19.56)"/>
    <path class="cls-6" d="M402.19,259.23a98.33,98.33,0,0,0-.74-10.34,5.35,5.35,0,0,0-1.92-3.44,60.7,60.7,0,0,0-11.46-7.58,2,2,0,0,1-1.21-2.08c.11-3.58.11-7.17.12-10.75,0-.86,0-1.42,1.14-.88,4.74,2.16,9.52,4.22,14.26,6.37a14.43,14.43,0,0,1,4,3c5.42,5.26,9.81,11.17,11.79,18.63.81,3,1.93,6,2.83,9A34.71,34.71,0,0,1,422,277.9c-2,10.1-2.31,20.35-2.73,30.58-.49,11.7-.67,23.41-.68,35.12a3.54,3.54,0,0,1-1,2.53,42.44,42.44,0,0,1-27.82,14.45c-1.14.13-1.58-.14-1.83-1.25a4.11,4.11,0,0,0-2.37-3.07,6.4,6.4,0,0,1-2.29-2.41,94.91,94.91,0,0,1-5.33-8.94c-3.25-5.87-6.22-11.91-10.2-17.36a3.05,3.05,0,0,1-.52-2.67c.92-4.06-.14-8-.8-12-.69-4.14-1.45-8.27-2.16-12.41-.9-5.21-3.9-8.28-9.05-9.25-.52-.09-1.14,0-1.36-.72-.91-3.17-2.05-6.3-2.13-9.65-.05-2,.26-2.37,2.33-2.73,4.27-.73,5.43-2,5-6.32a7.57,7.57,0,0,1,4-7.71c1.67-1,3.38-2,5-3a7.64,7.64,0,0,0,3.4-4.23c1.2-3.65,3.1-4.71,6.92-4a12.89,12.89,0,0,1,5.1,2.47c3.61,2.65,7.18,5.37,10.77,8.05a21.14,21.14,0,0,0,3.81,2.45c2.06.93,3.33.29,3.84-1.9A23.19,23.19,0,0,0,402.19,259.23Z" transform="translate(-30.91 -19.56)"/>
    <path class="cls-6" d="M144.9,291.47a10.07,10.07,0,0,0-12,8.24q-1.81,9.66-3.3,19.37a18.16,18.16,0,0,0,.92,8.78c.18.52.45,1,0,1.56-4.21,5.9-7.12,12.55-10.8,18.76q-1.76,3-3.64,5.84a6.58,6.58,0,0,1-2.63,2.52,4,4,0,0,0-1.95,3c-.2.83-.5,1.18-1.47,1.07a42.53,42.53,0,0,1-28.37-14.75,3,3,0,0,1-.72-2.13c-.14-14-.3-27.89-1-41.83a167.32,167.32,0,0,0-2.48-24,37.32,37.32,0,0,1,1.65-19.21c1-3,1.84-6.11,2.95-9.1A38.14,38.14,0,0,1,96,231.25c3.65-2.55,8.13-3.7,12.15-5.65,1.11-.54,2.27-1,3.37-1.52.75-.36,1-.19,1,.62,0,3.87,0,7.73.13,11.6,0,1-.63,1.21-1.24,1.55a72.09,72.09,0,0,0-11,7.13,6.9,6.9,0,0,0-2.57,5.07c-.32,4.35-.94,8.7-.43,13.07.37,3.18,1.95,4,4.72,2.35,3.34-2,6.22-4.57,9.32-6.87a69.59,69.59,0,0,1,6.78-4.66,9.23,9.23,0,0,1,4-1.18c3.23-.21,4.68.69,5.65,3.77a8.39,8.39,0,0,0,3.92,4.83c1.69,1,3.4,2,5,3a7.2,7.2,0,0,1,3.53,7.57c-.51,3.73,1,5.54,4.72,6.12,2.5.39,2.9.9,2.66,3.43a36.7,36.7,0,0,1-2.52,9.89A.2.2,0,0,1,144.9,291.47Z" transform="translate(-30.91 -19.56)"/>
    <path class="cls-7" d="M243.11,342.54c2-4,4.56-7.67,6.36-11.76,3-6.85,6.45-13.5,9.76-20.2a7,7,0,0,1,.53,3.75q.06,27.68,0,55.36a6,6,0,0,1-.41,2.62c-.84,1.26-1.44.17-2-.27a6.47,6.47,0,1,0,.18,9.39c.36-.35.68-.74,1.07-1.06s.8-.2,1,.34a7.1,7.1,0,0,1,.17,2q0,14.64,0,29.3a7,7,0,0,1-.17,2c-.4,1-1.19.54-1.85.43-3.54-.6-6,.25-7.48,2.77a6,6,0,0,0,.12,7,6.16,6.16,0,0,0,6.53,2.8c.78-.14,1.63-.66,2.32.23a5.75,5.75,0,0,1,.52,2.94q0,11.4,0,22.81a10.18,10.18,0,0,1-.37,3.15c-.08.9-.88,1.08-1.49,1.42-4.31,2.41-4.89,7.52-1.21,10.79a7.31,7.31,0,0,0,7.29.61,6.63,6.63,0,0,0,3.07-7.08,6.23,6.23,0,0,0-5.37-4.85,6.22,6.22,0,0,1-1.66-.18c-.32-.11-.65-.25-.37-.7a2.42,2.42,0,0,0,1.77-2.46c-.09-9.6.06-19.2-.09-28.79a2.2,2.2,0,0,1,.19-1.29,7.2,7.2,0,0,0,.06-5.79,2.22,2.22,0,0,1-.18-1.3q-.07-54,0-107.92c0-.9.27-1.77.22-2.67,4.9-9.61,10-19.1,15.41-28.44.31-.52.69-1,1-1.51a2,2,0,0,1,.55,1.53c0,.51,0,1,0,1.52q0,96,0,191.93c0,1,.23,2.15-.53,3.07a70.73,70.73,0,0,1-9.72,1.32,235.36,235.36,0,0,1-25.05,1.05c-.64,0-1.35.21-1.93-.3a2.62,2.62,0,0,0,.22-.25,2,2,0,0,0,1.28-2.13c0-.67,0-1.34,0-2q0-60.3,0-120.58A71.58,71.58,0,0,1,243.11,342.54Z" transform="translate(-30.91 -19.56)"/>
    <path class="cls-7" d="M299,243.39l10.63-14.54a1.75,1.75,0,0,1,2.44-.7c1.1.52,2.26.92,3.39,1.37a6.41,6.41,0,0,1,.18,2V348.79c0,3.4,0,6.81-.26,9.66.06-1.64.25-3.82.24-6a11.51,11.51,0,0,1,1.83-6.52c.68-.12.65.44.73.83a10.56,10.56,0,0,1,.09,2.18V397c0,.44,0,.89,0,1.34.06,1.39.28,1.52,1.45.7a62.42,62.42,0,0,0,8.79-7.53c.72-.73,1.56-2.05,2.57-1.43s.13,1.95-.22,2.88q-5.64,14.76-11.33,29.49c-.34.85-.34,2.21-1.88,2.05a4.23,4.23,0,0,1-.37-2.45c0-5.94,0-11.87,0-17.81,0-.67.49-1.9-.57-1.93s-1.07,1.22-1.08,2.11c0,4.87,0,9.74,0,14.62,0,3.73,0,7.47,0,11.11.35-1.1,1-2.22,1.43-3.41.14-.36.17-1.13,1-.64a4.72,4.72,0,0,1,.35,2.46q0,16.47,0,32.94a4.34,4.34,0,0,1-.56,2.75c-5.47,1.82-11,3.57-16.51,5.12a6.66,6.66,0,0,1-2,.28,2.27,2.27,0,0,1-.53-1.71c0-.73,0-1.46,0-2.19q0-109.24,0-218.5A17.73,17.73,0,0,1,299,243.39Z" transform="translate(-30.91 -19.56)"/>
    <path class="cls-8" d="M84.09,238.15a47.43,47.43,0,0,0-3.22,5.49c-3.57,8.28-6.63,16.73-7.45,25.81a31.94,31.94,0,0,0,.67,9.51c1.46,6.88,1.86,13.86,2.24,20.84.68,12.87,1,25.74,1,38.62a3.57,3.57,0,0,1-.21,1.94c-1.19-1.66-2.3-3.22-3.54-5-4.05,7.74-7.05,15.73-10.37,23.67a2.59,2.59,0,0,1-.92-1.4A200.19,200.19,0,0,1,45.12,257.23a195.7,195.7,0,0,1,9.64-46c.12-.38.18-.77.55-1,.62-.21.94.29,1.37.55,2.58,1.88,5.58,2.76,8.59,3.61a107.45,107.45,0,0,0,16.61,3c.93.11,1.93.1,2.49,1.08a6.8,6.8,0,0,1,.23,2.33c0,4.81,0,9.63,0,14.45A6.63,6.63,0,0,1,84.09,238.15Z" transform="translate(-30.91 -19.56)"/>
    <path class="cls-7" d="M186.64,466.91c-5.55-1.9-11.17-3.6-16.52-6.05-.75-.93-.52-2-.52-3.08q0-25.62,0-51.23V345.74a16.09,16.09,0,0,1,0-1.84c0-1.12,0-2.24,0-3.36V232c0-1.16-.2-2.37.55-3.42,2.44-2,5.3-3.43,7.86-5.3.9-.65,1.32.09,1.73.65,2.09,2.87,4.15,5.76,6.21,8.65a22.66,22.66,0,0,1,.22,3.68V459.49c0,2.07-.14,4.15.64,6.14A1.2,1.2,0,0,1,186.64,466.91Z" transform="translate(-30.91 -19.56)"/>
    <path class="cls-7" d="M204.14,471.59l-15.62-4a3.4,3.4,0,0,1-.57-.29,5.86,5.86,0,0,1-.21-2q0-113,0-226c0-1.14-.31-2.37.55-3.39,5.16,7.06,10,14.34,14.91,21.58.42.63,1.15,1.09,1.23,1.94a26.67,26.67,0,0,1,.2,4.19q0,102.27,0,204.54C204.64,469.33,204.93,470.55,204.14,471.59Z" transform="translate(-30.91 -19.56)"/>
    <path class="cls-8" d="M441.79,212.12c15.57,48.55,13.07,96.22-6.86,143.61-3.06-7-5.57-13.75-9.09-20.3l-3.74,5.21c0-2.92-.05-5.46,0-8,.18-8.12.29-16.24.62-24.35.43-10.29.87-20.56,2.85-30.73,1.3-6.72.28-13.37-1.87-19.85-2.21-6.63-3.85-13.49-8.21-19.18a10.74,10.74,0,0,1-.45-3.48c0-4.71,0-9.41,0-14.12a8.75,8.75,0,0,1,.19-2.5c.37-.95,1.21-1,2.07-1.12A106.23,106.23,0,0,0,435.61,214a36.32,36.32,0,0,0,3.79-1.35C440.15,212.31,440.89,211.8,441.79,212.12Z" transform="translate(-30.91 -19.56)"/>
    <path class="cls-9" d="M234.76,142.06a50.7,50.7,0,0,1,5.74,5.61c.36.36.59,1.19,1.21.91a1.62,1.62,0,0,0,.69-1.77,15.32,15.32,0,0,0-.32-1.64c-.36-.94.35-1,.87-.87,4.87,1.23,9.85,2,14.65,3.52.44.61.86,1.28,1.63.35,1.41-.26,2.84-.64,4,.64-1.81,1.07-3.63,2.11-5.43,3.21-2.34,1.42-2.54,2.23-1.23,4.56a2.34,2.34,0,0,1,.39,1.26c0,5.67,3,10,6.51,13.94a55.38,55.38,0,0,0,9.26,8.23c.5.35,1.43.66.79,1.64a1.68,1.68,0,0,1-.86.07c-6.49-.23-13-.09-19.46-.07-8.22,0-16.45.27-24.65-.46-1.09-.39-.59-1-.16-1.52.78-.94,1.71-1.75,2.45-2.73a49.09,49.09,0,0,0,7.94-16.47c.83-1.51,2.24-2.49,3.37-3.73,1.6-1.76,1.5-3-.5-4.22a104.9,104.9,0,0,0-26.42-12.3,39.18,39.18,0,0,0-21.89.28c-2.42.68-2.58,2.47-2.75,4.41a23.92,23.92,0,0,0-1.1,12.71c.92,4.87,3.52,8.22,8.38,9.7a46.38,46.38,0,0,0,6.67,1.64,19.21,19.21,0,0,1,2.14.4c.48.13,1.13.29,1.06.88s-.76.55-1.24.57c-1.46.06-2.91,0-4.36,0A65.27,65.27,0,0,1,185,168.28a116.16,116.16,0,0,0,11.6,3.94,10.41,10.41,0,0,1,3,.95c.54,1.14-.51,1.3-1.09,1.61-2.91,1.61-5.84,3.18-8.76,4.76a8.12,8.12,0,0,0-1.39.91c-1.61.9-3.44,1.27-5.07,2.17-4.73,2.6-6.53,6.55-5.28,11.79,1,4,4.33,6.6,9.13,7.47,3.21.57,6.35-.16,9.51,0,5.18-.27,10.27.68,15.39,1.12,5.74.49,11.48,1,17.22,1.51,6.69.58,13.38,1.18,20.07,1.84,9.91,1,19.83,2,29.71,3.23,5.73.73,11.46,1.41,17.09,2.69a18.92,18.92,0,0,1,3.21,1c.74.31,1.45.73,1.49,1.64s-.71,1.46-1.48,1.84a15.07,15.07,0,0,1-4.38,1.1,141.68,141.68,0,0,1-23.55,3.53c-14.6,1.12-28.93-.71-43.18-3.7-9.55-2-19-4.5-28.38-7a17.81,17.81,0,0,0-4.46-.76c-2.26.13-4.39-.74-6.62-.91a11.25,11.25,0,0,0-2.84,0c-1.44.24-1.76.93-1.1,2.26.38.76,1.07,1.29,1.51,2,.15.24.81.7-.07.93a38.81,38.81,0,0,1-11.48-7.71c-.86-1.75-.07-3.51,0-5.25.24-3.34.76-6.67.84-10a19.12,19.12,0,0,0-.54-5.49c.6-3.27-1.43-4.79-4-5.94a30.67,30.67,0,0,0-5.18-1.92c-.71-.18-1.61-.27-1.66-1.34,1.09-7.1,4.2-13.43,7.64-19.6,2.62-4.7,5.28-9.37,8.13-13.92,3.46-5.51,5.26-11.57,6.53-17.86.49-2.43.56-2.41,2.9-1.59l9.1,3.17A33.69,33.69,0,0,0,189.69,139c4-4,8-8.07,13.38-10.31a2.1,2.1,0,0,1,1.42.34,168.73,168.73,0,0,0,28,12.09C233.25,141.34,234,141.78,234.76,142.06Z" transform="translate(-30.91 -19.56)"/>
    <path class="cls-10" d="M317.74,464.24V425.91a.91.91,0,0,1,0-1.33c1.39-1.29,1.58-3.15,2.21-4.78q5.31-13.64,10.56-27.31c.27-.71.47-1.46.73-2.3-1,0-1.42.62-1.9,1.11a61.74,61.74,0,0,1-9.62,8.28c-.53.37-1.12,1.12-1.67.88s-.29-1.21-.29-1.85q0-26.36,0-52.73c-.78-.91-.53-2-.53-3.06q0-25.69,0-51.41,0-28.89,0-57.79c0-1-.26-2.15.54-3.06,4.43,1.37,8.53,3.53,12.82,5.25,1,.41,2,.95,3,1.42a6,6,0,0,1,.21,1.83q0,46.95,0,93.88c0,.51,0,1,0,1.51.09,1.07,0,2.13,0,3.2q0,58.38,0,116.76c0,1.16.18,2.37-.52,3.43C328.19,460.26,323,462.25,317.74,464.24Z" transform="translate(-30.91 -19.56)"/>
    <path class="cls-10" d="M151.3,240.61l16.14-10.39c.78.85.55,1.9.55,2.88q0,20.51,0,41v66.21a11.66,11.66,0,0,1,0,1.18q.06,24.93,0,49.85c0,7.44-.62,14.88-.29,22.31.65,14.44.13,28.87.3,43.3,0,1,.22,2-.52,2.9-4.87-2-9.58-4.39-14.28-6.78a3.63,3.63,0,0,1-1.54-.95c-.73-.86-.55-1.9-.55-2.89q0-19.65,0-39.3,0-36.18,0-72.37a19,19,0,0,1,.1-3,3.6,3.6,0,0,1,1.18-2c4.08-4.28,5.39-9.41,4.62-15.16q-1.06-8.07-2.12-16.14A13.39,13.39,0,0,0,152,293.9a3,3,0,0,1-.74-1.49,47.89,47.89,0,0,1,.15-9,21.61,21.61,0,0,0,.1-3.68c-.82-11.85-.15-23.71-.36-35.57A12.93,12.93,0,0,1,151.3,240.61Z" transform="translate(-30.91 -19.56)"/>
    <path class="cls-7" d="M297.26,470.32c-4.1,1.1-8.27,1.9-12.43,2.67-1.36.25-2.73.44-4.09.65a2.45,2.45,0,0,1-.51-1.73c0-.78,0-1.57,0-2.35q0-94.8,0-189.59a67,67,0,0,1,.21-8.38q5.34-9,11.19-17.58c1.46-2.15,2.68-4.49,4.6-6.31a2.24,2.24,0,0,1,.54,1.71c0,.84,0,1.68,0,2.52V466.35A9.72,9.72,0,0,0,297.26,470.32Z" transform="translate(-30.91 -19.56)"/>
    <path class="cls-7" d="M206.81,263.16c4.87,6.95,9.18,14.26,13.58,21.51.75,1.24,1.46,2.5,2.19,3.75a48.5,48.5,0,0,1,.22,6.71q0,33.71,0,67.41a54.29,54.29,0,0,1-.22,7.21,5.85,5.85,0,0,1-1.1,2.2,5.26,5.26,0,0,0-.49,3.55c.5,3,1.06,6.08,1.59,9.12a3.67,3.67,0,0,1,0,.66c-.29,1.57.2,3.1.21,4.66.1,27.49,0,55,0,82.47a3,3,0,0,1-.52,2.23c-5.3-.73-10.6-1.47-15.83-2.64a5.37,5.37,0,0,1-.21-2q0-101.73,0-203.47C206.25,265.4,205.93,264.17,206.81,263.16Z" transform="translate(-30.91 -19.56)"/>
    <path class="cls-8" d="M359.08,105.84c.52,2.44.72,4.94,1.72,7.28,2.49,5.82,6.43,10,12.83,11.35a20.73,20.73,0,0,0,6,.12,4.71,4.71,0,0,0,1.5,0c2.34-.86,3.61.54,4.78,2.18.84.67.63,1.62.64,2.49.08,5.3-.16,10.59-.28,15.89-.17,7.59,0,15.19-.05,22.78,0,.93.19,1.93-.58,2.7-1.9,0-3.8.08-5.69.09-9.3,0-18.54.61-27.58,3.06a5.25,5.25,0,0,0-.59.28c-4.75,1.24-9.69,1.49-14.45,2.67a1.44,1.44,0,0,1-1.42-.25c-1.25-9.3-5.22-17.53-9.94-25.47-.29-.51-1-1-.63-1.61s1-.17,1.57-.18c10.7-.17,21.38-.59,31.85-3.08a28.36,28.36,0,0,0,7.55-2.74c5-2.81,5.3-7.52.72-10.9-4.9-3.61-10.61-5.5-16.29-7.41-6.42-2.15-13-4-19.51-5.65a2,2,0,0,1-1.71-1.9c-.62-4.26-1.38-8.5-2.06-12.76-.26-1.64-1-2.75-2.82-2.66-.7,0-.85-.29-1-.84-1.06-4.8-2.13-9.6-3.21-14.46.68-.3,1.19.16,1.71.36a203.36,203.36,0,0,1,35.62,17.91C358.21,105.35,358.65,105.58,359.08,105.84Z" transform="translate(-30.91 -19.56)"/>
    <path class="cls-11" d="M441.79,212.12c-7.64,3.53-15.84,4.63-24.06,5.67-.72.09-1.43.21-2.15.32-1.87.91-3.92.69-5.88.82-3.33.22-3.33.12-3.34,3.43,0,1.45,0,2.9,0,4.34a2.32,2.32,0,0,1-.53,1.87c-.7-1.84-.26-3.75-.29-5.62-.06-4.22,0-4.43-4.24-4.1a152,152,0,0,1-16.94.21c-5.51-.18-11.05-.12-16.54-.9a25.09,25.09,0,0,0-3.36,0c-1.09.52-2.18-.27-3.27,0a129.24,129.24,0,0,1-26.47-4.85A36.09,36.09,0,0,1,329,211c-.58-.29-1.26-.51-1.48-1.25l-.35-.74c-1.23-2.21-.81-4.69-1.07-7.05-.43-3.87-.63-7.76-1-11.64a10,10,0,0,1,0-2.67c.27-1.09.95-.88,1.66-.51a13.9,13.9,0,0,0,3.63,1.67c3,.85,5.94,2.07,9,2.85,5.77,1.67,11.71,2.34,17.64,3.12,14.74,1.94,29.57,2,44.39,1.62a171,171,0,0,0,26-2.71c1-.29,2.16-.38,3.21-.74,2.73-.82,5.51-1.52,8.23-2.4,2.33-.94,4.34-2.24,5.36-4.68a18,18,0,0,1,1.63,7.4c.3,4.9-.37,9.76-.67,14.64a4.14,4.14,0,0,1-1.79,3.07C442.85,211.34,442.32,211.73,441.79,212.12Z" transform="translate(-30.91 -19.56)"/>
    <path class="cls-11" d="M175.53,185.16c1.19,4.23.51,8.5.16,12.76-.23,2.82-.59,5.64-.89,8.46a8.58,8.58,0,0,1-3.72,3.7c-.48.28-1.06.41-1.31,1-2.09,1.61-4.63,2.14-7.08,2.83a144.4,144.4,0,0,1-23.52,4.21,1.81,1.81,0,0,1-1.58-.29l-11.82.91-.67.05c-8,.31-16,.5-24,.29-1.95,0-3.9-.29-5.85-.27-.58,0-1.3-.22-1.47.69-2.44-.79-5-.42-7.48-.89a4,4,0,0,1-2.3-.36c-3.2-.8-6.52-.87-9.76-1.47-5.17-1-10.34-1.9-15.17-4.07a8.19,8.19,0,0,1-3.09-2,9.92,9.92,0,0,1-.34-1.62c.19-6.57-.58-13.12-.34-19.68a3.74,3.74,0,0,1,.18-1.15c.35-.82.89-.49,1.33-.15,3.67,2.88,8.09,3.88,12.47,4.91a31.07,31.07,0,0,0,5.9,1.06,117.61,117.61,0,0,0,15,2c.9.07,1.8-.06,2.7,0a22.73,22.73,0,0,1,3.69.13,7.45,7.45,0,0,0,2.66.18c5.93,0,11.86.06,17.8,0a217.62,217.62,0,0,0,40.33-4.09A121.81,121.81,0,0,0,171,188.15a10.65,10.65,0,0,0,2.89-2.1C174.38,185.63,174.72,185,175.53,185.16Z" transform="translate(-30.91 -19.56)"/>
    <path class="cls-12" d="M186.28,214.09c0-1-1-1.29-1.44-2-.5-.87-1.32-1.73-.78-2.77s1.59-.9,2.54-.92a31.33,31.33,0,0,1,6.46.84c.64.12,1.28.44,1.95.14a117.46,117.46,0,0,0,17.38,7.57,139.57,139.57,0,0,0,30.51,7.89,97,97,0,0,0,18.59.3c11.35-.72,22.12-3.91,32.85-7.36.21-.07.43-.11.53-.34,1.41-.51,3-.44,4.31-1.15.59-.31,1.36-.53,1.38-1.31s-.8-1.1-1.49-1.34a62.69,62.69,0,0,0-12.42-2.55c-6-.84-12-1.59-18.06-2.29-4.82-.55-9.65-.95-14.48-1.44-5.15-.52-10.3-1.09-15.46-1.59-4.16-.4-8.33-.71-12.49-1.09q-8.91-.79-17.82-1.63a90.94,90.94,0,0,0-12-.77c.27-.87,1-.77,1.67-.75,4.15.17,8.27-.39,12.41-.4,4.87,0,9.73-.34,14.61-.32,16.83.07,33.57,1,50.1,4.45a214.88,214.88,0,0,1,21.33,5.42c1,.32,2,.67,3,1,6.63,2.17,11.22.21,13.75-6.29,2.14-5.5,2.14-11-1.67-15.94-2-2.63-4.93-4-8-4.94a54.87,54.87,0,0,0-11.25-1.88,164.63,164.63,0,0,0-16.77-.68c-.65,0-1.37.08-1.84-.56-1.78-1.42-3.6-2.8-5.32-4.29-3.89-3.37-7.51-7-9.9-11.66a15.46,15.46,0,0,1-1.88-8.86c4.56,4.12,9.05,8.33,14.26,11.67,5.95,3.83,12.34,6.38,19.49,6.37a63.93,63.93,0,0,0,26.2-6.81c-12.73,2.6-25.43,4.73-38.08-.25a44.47,44.47,0,0,0,11.22-.88,34.18,34.18,0,0,0,10.25-3.59c4.82-2.81,7.29-7.28,8.46-12.56.29-1.35.77-1.91,2.2-1.7s3,.13,4.52.2a2.79,2.79,0,0,1,2.53,1.73c3.69,6.34,7.52,12.6,9.73,19.66a23,23,0,0,1,1.5,8.37c0,.89-.82,1.14-1.38,1.52a7.94,7.94,0,0,0-3.55,7,77.51,77.51,0,0,0,.78,12.83c.1.64.34,1.33-.28,1.88-1.1-.45-1,.66-1.24,1.08a43.59,43.59,0,0,1-7,10c-5.25,5.43-11.92,8.18-19,10.08-8.32,2.22-16.81,3.69-25.17,5.7q-6.76,1.62-13.51,3.34c-8.83,2.25-17.47,1.2-26.15-1.1a267.63,267.63,0,0,1-35.24-12.48C193.48,217.12,189.78,215.83,186.28,214.09Z" transform="translate(-30.91 -19.56)"/>
    <path class="cls-13" d="M74.16,342.19a77.7,77.7,0,0,0,11.21,11.92c7.23,6.13,15.8,8.89,25,9.94a29.35,29.35,0,0,0,4.18.28c1.15,0,1.49.31,1.55,1.47.42,7.55.59,15.1.69,22.66.17,12.26-.13,24.52-.61,36.78,0,.88-.13,1.75-.23,3-2.4-2.13-4.64-4-6.8-6A202,202,0,0,1,65.86,365a2.36,2.36,0,0,1-.37-2.17C68.16,355.91,71,349.1,74.16,342.19Z" transform="translate(-30.91 -19.56)"/>
    <path class="cls-13" d="M425.31,342.2c.81,1.8,1.59,3.45,2.3,5.14,1.6,3.76,3.15,7.54,4.74,11.3a2.63,2.63,0,0,1,0,2.38,202.7,202.7,0,0,1-48.28,63.83c-.16.14-.34.27-.52.4-.52-.31-.32-.81-.33-1.2-.84-19.43-.9-38.86.07-58.28.06-1.24.53-1.39,1.6-1.44,9.32-.43,18.2-2.43,26-7.82a63.92,63.92,0,0,0,13.32-13Z" transform="translate(-30.91 -19.56)"/>
    <path class="cls-10" d="M351.72,448.11a106.4,106.4,0,0,1-15.81,8.41c-.76-.85-.54-1.91-.54-2.89q0-19.33,0-38.66V337.33a10.22,10.22,0,0,1,.22-3.17.93.93,0,0,1,.37-.54,15.88,15.88,0,0,1,8-2,6.85,6.85,0,0,1,1.7,1.61,11.18,11.18,0,0,0,4.51,3.13,2.75,2.75,0,0,1,2.05,3.05c0,.39,0,.79,0,1.18q0,52.23,0,104.47C352.24,446.08,352.46,447.19,351.72,448.11Z" transform="translate(-30.91 -19.56)"/>
    <path class="cls-14" d="M387.6,122.36c7.78-5.22,10.71-12.62,9.92-21.78-.37-4.28-.43-8.59-.77-12.87-.3-3.76,0-7.58-1.18-11.44a11.93,11.93,0,0,1,7.22,6.7,26.57,26.57,0,0,1,2.66,11.34c.1,16.62.21,33.26-.05,49.88-.15,8.9-.07,17.79-.17,26.68,0,1.29-.37,1.69-1.65,1.49A110.65,110.65,0,0,0,388.26,171c-.54,0-1.14.18-1.58-.32a14.09,14.09,0,0,0,.47-4.79V125.48A6.3,6.3,0,0,1,387.6,122.36Z" transform="translate(-30.91 -19.56)"/>
    <path class="cls-7" d="M343.66,331.76a64.61,64.61,0,0,0-7.73,2l-.24-.24a5.09,5.09,0,0,1-.33-2.47q0-45,0-90c0-.93-.2-1.93.53-2.73a186.05,186.05,0,0,1,25.51,13.86,3.22,3.22,0,0,0,.78.24.57.57,0,0,1,.58.5c.24,2.42.63,4.84-.26,7.22-2.38,1.73-4.91,3.27-6.17,6.17a10.61,10.61,0,0,0-.91,5.19c.22,2.83.19,2.92-2.77,3.45-2.72.49-3.72,1.62-4.39,4.28a11.88,11.88,0,0,0,.34,5.25c.44,2.34,1.16,4.63,1.77,6.94-.79.87-2.06,1.07-2.77,2-3.75,2.7-5.52,6.37-5.92,11-.36,4.17-.58,8.35-.74,12.53a27.94,27.94,0,0,0,2.3,12.82C343.54,330.38,344.13,331,343.66,331.76Z" transform="translate(-30.91 -19.56)"/>
    <path class="cls-7" d="M241.39,476.05c-1-.05-2.17.21-3-.23s-.31-1.75-.45-2.67c-.49-3.36-.86-6.73-1.26-10.1-.55-4.52-1.1-9.05-1.61-13.58-.5-4.37-.93-8.75-1.43-13.11s-1-8.62-1.54-12.92c-.39-3.32-.75-6.64-1.14-9.95-.53-4.48-1.09-8.95-1.61-13.42-.49-4.31-.93-8.63-1.42-12.94s-.95-8.41-1.52-12.59a2.91,2.91,0,0,1,.27-1.92l14.46-26.5c0-.09.16-.15.24-.23.73.8.54,1.79.55,2.72q0,14.53,0,29.06,0,47.54,0,95.07c0,1.09.27,2.26-.5,3.24Z" transform="translate(-30.91 -19.56)"/>
    <path class="cls-1" d="M343.66,331.76c-.94-2.18-2.14-4.28-2.51-6.67q-.5-3.19-.84-6.41c-.07-.57-.25-1.24.34-1.72.25-2.81.28-5.64.59-8.46a47.14,47.14,0,0,1,1.95-9.63c.82-2.51,2.72-4.16,4.5-5.92.53-1.16,1.66-1.25,2.69-1.54a1.85,1.85,0,0,0,1.27.33c5.27-.51,10,3.85,10.85,9.94.77,5.46,2,10.85,2.79,16.31.94,6.5,0,12.51-5.3,17.13a17.61,17.61,0,0,1-1.5,1.06,3.67,3.67,0,0,1-2.49,1.56,1.72,1.72,0,0,0-1.38,1.83c0,.73,0,1.46,0,2.19V443.35a5.89,5.89,0,0,1-.53,3.43,8,8,0,0,1-2.36,1.33q0-54.24,0-108.5c0-1.53-.25-2.41-1.94-2.87C347.08,336,345.44,333.75,343.66,331.76Z" transform="translate(-30.91 -19.56)"/>
    <path class="cls-10" d="M149,450.8c-2-1.17-4.05-2.37-6.1-3.5-.79-.43-1-.84-.58-1.72a8.3,8.3,0,0,0,.39-5.41,4.68,4.68,0,0,1-.1-1c-.11-3.74-.12-7.48-.37-11.21-.32-5-.46-9.91-.69-14.87q-.33-6.77-.67-13.52c-.24-4.9-.43-9.8-.68-14.7-.26-5.12-.45-10.25-.67-15.37-.3-7.13-.62-14.26-1.05-21.37-.21-3.33.11-6.7-.56-10a1.67,1.67,0,0,1,.62-1.94c.58-.34,1.07,0,1.58.19a9.46,9.46,0,0,0,6.81,0c.69-.26,1.4-.78,2.18-.18a4.06,4.06,0,0,1,.43,2.44q0,54.79,0,109.58C149.5,449.13,149.66,450.07,149,450.8Z" transform="translate(-30.91 -19.56)"/>
    <path class="cls-14" d="M126.58,343c.31,3,.62,5.48.83,8,.69,7.94,1.38,15.89,2,23.84.43,5.52.71,11,1.08,16.55.53,7.68,1.09,15.36,1.61,23.05.25,3.73.45,7.47.64,11.2.28,5.13.53,10.26.8,15.56a20.83,20.83,0,0,1-4.54-2.93c-2.82-2-5.5-4.2-8.34-6.18-1.52-1.06-1.34-2.46-1.24-3.89.44-6.36.47-12.73.7-19.1.27-7.11.29-14.21.2-21.32s-.41-14.08-.65-21.12c0-1-.2-2-.27-3,0-.58-.18-1-.86-1-.16,0-.46,0-.47-.08-.29-1.84-1.74-1.44-3-1.71-.73-.16-.19-1.12.13-1.35,4.92-3.51,6.88-9.1,9.86-14C125.53,344.84,125.94,344.08,126.58,343Z" transform="translate(-30.91 -19.56)"/>
    <path class="cls-14" d="M366.2,439a89.22,89.22,0,0,1,.47-11.11c.15-2.28.19-4.57.41-6.85.45-4.61.5-9.26.8-13.88.5-7.52,1.08-15,1.6-22.55.38-5.29.67-10.58,1.09-15.87.47-6,1.05-11.89,1.57-17.83.16-1.73.31-3.45.42-5.18a5.15,5.15,0,0,1,.52-2.35c1.93,3.36,3.73,6.7,5.74,9.9,1.43,2.3,2.71,4.8,5.28,6.15a1,1,0,0,1,.52,1.14c-.16.59-.72.45-1.13.44-.83,0-1.59-.05-1.64,1.1a.59.59,0,0,1-.73.54c-1.36-.28-1.1.68-1.15,1.43-1,16.15-.77,32.33-.63,48.5,0,4.69.37,9.38.62,14.06a3,3,0,0,1-1.26,2.83C374.73,432.73,370.64,435.82,366.2,439Z" transform="translate(-30.91 -19.56)"/>
    <path class="cls-8" d="M327.49,209.7c6.7,3.66,14.06,5.1,21.45,6.35,4.14.7,8.32,1.15,12.48,1.71a2,2,0,0,1,.56,1.69c-.08,3.8.56,7.57.36,11.38-.24,4.58.44,9.14.33,13.72,0,.87.17,1.81-.59,2.52-15.15-9.38-31.44-16.42-48.19-23.09A41.34,41.34,0,0,0,327.49,209.7Z" transform="translate(-30.91 -19.56)"/>
    <path class="cls-1" d="M148.62,336.13a10.09,10.09,0,0,1-10.12.06,16.18,16.18,0,0,1-5-4.81c-1.17-3.15-2.24-6.32-1.81-9.76.53-4.2,1.28-8.37,2.1-12.53.34-1.75.74-3.49.94-5.27a20.07,20.07,0,0,1,3.77-10.06c1.89-1.4,4.14-1.84,6.37-2.29l.33-.06c.92.28,1.82.61,2.76.83s.75-.88,1.26-1.2a3.65,3.65,0,0,1,2.38,1.72c3.08,3,3.58,6.89,4.07,10.85.59,4.79,1.42,9.56,1.9,14.36.54,5.42-.69,10.42-4.5,14.55l-1.47,1.6A4.39,4.39,0,0,1,148.62,336.13Z" transform="translate(-30.91 -19.56)"/>
    <path class="cls-15" d="M295.57,231l8.71-2.48a491.74,491.74,0,0,0-46,73.28c-.66-4.43-1.33-8.87-2-13.31q-2.38-16.45-4.75-32.91c-.06-.44-.07-.89-.11-1.34-.41-1.34.16-2.15,1.29-2.89,3.53-2.32,3.48-2.34,5.9,1.13,3.16,4.55,6.31,9.11,9.52,13.62.88,1.23,1,1.24,1.88,0q11.68-16.32,23.27-32.69A6.59,6.59,0,0,1,295.57,231Z" transform="translate(-30.91 -19.56)"/>
    <path class="cls-7" d="M225,292.74c2.27,4,4.64,8,6.81,12.1,3.62,6.82,7,13.79,10.73,20.5,1.69,3,1.51,5.35-.48,7.91-2.23,2.88-3.75,6.2-5.52,9.36-3.92,7-7.5,14.24-11.09,21.45a5.91,5.91,0,0,1-.46.69,2.76,2.76,0,0,1-.56-2.21q0-33.8,0-67.6A2.67,2.67,0,0,1,225,292.74Z" transform="translate(-30.91 -19.56)"/>
    <path class="cls-16" d="M297.26,470.32c-.68,0-1.06-.24-1-1,0-.5,0-1,0-1.51q0-109,0-217.94c0-.73,0-1.46,0-2.19a23.11,23.11,0,0,1,2.74-4.31c.54.64.27,1.4.27,2.1q0,111.15,0,222.3c0,.62,0,1.23,0,1.85A3.51,3.51,0,0,1,297.26,470.32Z" transform="translate(-30.91 -19.56)"/>
    <path class="cls-8" d="M137.59,217.82c9.88-1.14,19.74-2.42,29.2-5.72,1-.35,1.87-1,3-1a31.12,31.12,0,0,0,7.2,6c.82.52,1.05.81.07,1.44-12.87,8.41-25.76,16.81-38.8,25a6.07,6.07,0,0,1-.65.31Z" transform="translate(-30.91 -19.56)"/>
    <path class="cls-16" d="M188.31,235.93q0,114.57,0,229.14c0,.74.31,1.57-.33,2.24l-1.31-.4c-1.46-3.24-1-6.69-1-10.07q0-111,0-222c0-.75-.31-1.58.32-2.25Z" transform="translate(-30.91 -19.56)"/>
    <path class="cls-16" d="M206.81,263.16c0,.78,0,1.57,0,2.35q0,102.12,0,204.25c0,.74.31,1.57-.32,2.24l-2.31-.41c0-.72,0-1.45,0-2.18q0-103.86,0-207.72c0-.74-.32-1.57.34-2.23A21.68,21.68,0,0,1,206.81,263.16Z" transform="translate(-30.91 -19.56)"/>
    <path class="cls-10" d="M354.08,446.78q0-53.8,0-107.61c0-1.18.33-1.77,1.48-1.89a12.36,12.36,0,0,0,3-1.1c1.27.66,1.92-.76,3.07-.88-.15,5-.26,10-.71,15-.22,2.44-.21,4.9-.3,7.34-.13,3.85-.39,7.69-.47,11.54-.16,8.08-.77,16.15-1,24.23-.14,4.28-.46,8.56-.65,12.84-.33,7.41-.73,14.81-1,22.21-.18,4.62-.77,9.24-.55,13.86C356.93,444.66,356.27,446.08,354.08,446.78Z" transform="translate(-30.91 -19.56)"/>
    <path class="cls-16" d="M280.43,271.59c.53.43.33,1,.33,1.57q0,99.9,0,199.81c0,.22,0,.45,0,.67a9.1,9.1,0,0,1-2.65.34q0-24.44,0-48.88V278.28c0-.78,0-1.56,0-2.35C278.57,274.33,279.7,273.07,280.43,271.59Z" transform="translate(-30.91 -19.56)"/>
    <path class="cls-15" d="M236.09,253.15c-1,6.76-1.88,13.53-2.84,20.29q-1.27,9-2.61,17.95c0,.36.09.8-.44,1.11-1.48-2.55-2.94-5.1-4.43-7.65-12-20.5-25.42-40.07-39.25-59.36-.29-.41-1.53-.91-.26-1.66,1.15-.44,1.47.59,1.9,1.2q4.41,6.24,8.85,12.47,10.17,14.3,20.33,28.63c1,1.46,1.09,1.45,2.16-.06q5.25-7.4,10.38-14.89c1.31-1.9,1.75-2,3.58-.57C234.39,251.36,235.9,251.6,236.09,253.15Z" transform="translate(-30.91 -19.56)"/>
    <path class="cls-17" d="M236.09,253.15a24.2,24.2,0,0,0-4-3c-.87-.63-1.14.19-1.51.72-3.76,5.41-7.55,10.8-11.27,16.23-.72,1.06-1,1.13-1.78,0-5.16-7.35-10.39-14.66-15.6-22q-7.23-10.17-14.46-20.32c-.32-.45-.54-1-1.23-1,.9-1.23,1.89-1.09,3.31-.7,6.12,1.7,10.35,5.43,13.81,10.75,5,7.73,10.73,15,16.09,22.54.72,1,1.08,1.21,2,.17,3-3.33,6.11-6.54,9.13-9.84.67-.74,1-.75,1.59.07,1.12,1.61,2.35,3.13,3.55,4.68C236.14,252,236.52,252.49,236.09,253.15Z" transform="translate(-30.91 -19.56)"/>
    <path class="cls-7" d="M225,401.35c.55,3.22,1.12,6.44,1.64,9.66.87,5.43,1.7,10.87,2.54,16.31s1.67,11,2.52,16.49c.81,5.21,1.66,10.43,2.47,15.64s1.61,10.44,2.45,15.65c.11.73-.17.95-.79.9l-12.3-1.1c-.09,0-.18-.13-.27-.19,1.23-.88,1.17-2.17,1.17-3.47q0-33.44,0-66.85C224.41,403.35,224.14,402.24,225,401.35Z" transform="translate(-30.91 -19.56)"/>
    <path class="cls-18" d="M75.07,194.52c-6.78-1.11-13.63-2-19.19-6.64-.81-1.36.25-2.2.93-3.06a17.16,17.16,0,0,1,6.45-4.72c1-1.15,2.48-1,3.73-1.53.88-.33,1.79-.57,2.68-.86a5.22,5.22,0,0,1,1.92-.94q5-1.17,10.13-1.88c.58-.08,1.22-.32,1.7.28-1.44.87-3.19,1.31-4.1,2.92-.28,2.14,0,2.71,1.88,3.77,3,1.67,6.42,2.25,9.79,2.86,1.69.31,3.46.26,5.08,1,.17,1.18-.89,1.07-1.49,1.28-6,2.06-12,4.23-18,6.29C75.9,193.47,75,193.44,75.07,194.52Z" transform="translate(-30.91 -19.56)"/>
    <path class="cls-17" d="M295.57,231l-22,30.84c-1.19,1.69-2.44,3.34-3.56,5.07-.71,1.09-1.14,1.09-1.87,0-3.57-5.21-7.2-10.38-10.8-15.57-1.24-1.78-1.22-1.78-3-.55a10.55,10.55,0,0,1-1.4.92,2.36,2.36,0,0,0-1.48,2.51,2.65,2.65,0,0,1,.46-3.07c1.38-1.68,2.71-3.42,4-5.19.59-.83.92-.81,1.59-.08,3.33,3.63,6.73,7.19,10.06,10.82.79.87,1.17.94,1.91-.1,5.32-7.47,10.72-14.88,16.06-22.34a3.77,3.77,0,0,1,2.54-1.67C290.56,232.11,293.06,231.5,295.57,231Z" transform="translate(-30.91 -19.56)"/>
    <path class="cls-19" d="M335.93,333.79q0,43.71,0,87.42v35.31c-.75.73-1.82.8-2.67,1.32q0-38.83,0-77.65,0-22.86,0-45.72a3.23,3.23,0,0,1,2.67-.68Z" transform="translate(-30.91 -19.56)"/>
    <path class="cls-16" d="M317.75,230.56q0,57.66,0,115.32a20.47,20.47,0,0,0-1.73,8.55,18.94,18.94,0,0,1-1,6.7c-.5-1.57.09-2.72.09-3.88q-.07-62.83,0-125.66c0-.69-.29-1.47.36-2.07Z" transform="translate(-30.91 -19.56)"/>
    <path class="cls-20" d="M167.47,459.86c0-13.27.13-26.54-.08-39.81-.11-6.7-.46-13.42-.24-20.11.66-19.47.09-38.95.3-58.42,1.53.05,1.73,1.63,2.68,2.35q0,58.49,0,117Z" transform="translate(-30.91 -19.56)"/>
    <path class="cls-19" d="M148.62,336.13l3-2q0,59,0,118c-1.07-.1-1.76-1-2.69-1.33q0-56.3,0-112.58C148.94,337.52,149.22,336.75,148.62,336.13Z" transform="translate(-30.91 -19.56)"/>
    <path class="cls-16" d="M170.13,343.87c-1.43-.17-1.47-1.93-2.68-2.35q0-55.65,0-111.3l2.7-1.64Q170.14,286.22,170.13,343.87Z" transform="translate(-30.91 -19.56)"/>
    <path class="cls-16" d="M259.22,414.5q0-17.16,0-34.33a1.19,1.19,0,0,1-.09-1.11,7.24,7.24,0,0,0-.24-5,1.1,1.1,0,0,1,0-1.25,17.31,17.31,0,0,0,.32-4.49V310.58l2.37-4.7c.53.5.31,1.16.31,1.74q0,53.75,0,107.48c0,.59.22,1.25-.32,1.75A4.27,4.27,0,0,1,259.22,414.5Z" transform="translate(-30.91 -19.56)"/>
    <path class="cls-16" d="M241.46,476c0-.78,0-1.57,0-2.35q0-63.87,0-127.74c.3-1.25,1.21-2.19,1.69-3.35.57.49.33,1.15.33,1.73q0,65,0,129.9C243.49,475.83,242.93,476.26,241.46,476Z" transform="translate(-30.91 -19.56)"/>
    <path class="cls-7" d="M149,275.6a7.41,7.41,0,0,0-3.34-1c-1.26.05-1.78-.52-1.74-1.83.05-2.22.28-4.48-.81-6.58a14.55,14.55,0,0,0-4.89-5.18,1.87,1.87,0,0,1-1-1.73c0-2.91,0-5.83,0-8.74,0-.57,0-1.11.6-1.45,3.79-2.14,7.27-4.77,11.13-6.79a2.77,2.77,0,0,1,.57,2.21q0,14.43,0,28.86A2.89,2.89,0,0,1,149,275.6Z" transform="translate(-30.91 -19.56)"/>
    <path class="cls-16" d="M335.88,333.79a5.63,5.63,0,0,1-2.67.68V239c0-.58-.21-1.24.36-1.73l2.33,1.08Q335.89,286.05,335.88,333.79Z" transform="translate(-30.91 -19.56)"/>
    <path class="cls-15" d="M204,229.14a210.86,210.86,0,0,0,29.5,9.5c-4.18,4.48-8.2,8.75-12.19,13.05-.92,1-1.1-.1-1.39-.5-4.08-5.6-8.12-11.23-12.18-16.85Z" transform="translate(-30.91 -19.56)"/>
    <path class="cls-16" d="M225,401.35l0,43.5c0,9.35,0,18.69,0,28,0,1.37-.33,2-1.74,1.82l-1-.07q0-44.06,0-88.11c0-.43-.13-.91.29-1.25q1.14,7.13,2.26,14.25C224.92,400.13,224.93,400.74,225,401.35Z" transform="translate(-30.91 -19.56)"/>
    <path class="cls-18" d="M330.29,189.14c-1.38-.11-2.42-1-3.6-1.58-.39-.2-.7-.83-1.26-.3a3.17,3.17,0,0,1-.12-3.89c1.22-2.12,3.38-3.12,5.28-4.44.33-.23,1.09-.08.93-.86,1.32-.91,3-.76,4.38-1.6,4.21-.83,8.43-1.69,12.7-2.19,1-.12,2.11-.15,3.17-.23-1.34.78-2.95,1.19-3.79,2.69-.54,1.64.14,2.73,1.48,3.65.9.62,2.08.86,2.67,1.9-.37.78-1.16.8-1.83,1C343.63,185.25,336.92,187.05,330.29,189.14Z" transform="translate(-30.91 -19.56)"/>
    <path class="cls-18" d="M444.21,185.82a3.21,3.21,0,0,1-1.71,3,14.88,14.88,0,0,1-3.38,2c-5.77-2.17-11.63-4-17.43-6.09-1.41-.5-3-.62-4.14-1.72-.05-.82.65-1.07,1.13-1.47a4.19,4.19,0,0,0,1.58-1.83c.41-1.84-.76-2.76-2.11-3.53-.71-.41-1.46-.75-2.2-1.12a.8.8,0,0,1,.72-.35c3.16.45,6.38.62,9.35,2,3.21.94,6.44,1.83,9.63,2.83a21.14,21.14,0,0,1,6.44,3.17C443.13,183.55,444.12,184.38,444.21,185.82Z" transform="translate(-30.91 -19.56)"/>
    <path class="cls-16" d="M225,292.74q0,36,0,72l-2.39,5c-.55-.5-.31-1.16-.31-1.75q0-38.91,0-77.83c0-.59-.24-1.24.31-1.75Z" transform="translate(-30.91 -19.56)"/>
    <path class="cls-15" d="M268.22,252.37l-11.75-12.55c8.46-1.58,16.45-4.26,25-5.77Z" transform="translate(-30.91 -19.56)"/>
    <path class="cls-18" d="M405.82,228.57c0-2.74.1-5.49,0-8.23-.06-1.37.59-1.79,1.74-1.85,2.67-.14,5.34-.26,8-.38q0,10.21-.08,20.43A49.44,49.44,0,0,0,405.82,228.57Z" transform="translate(-30.91 -19.56)"/>
    <path class="cls-8" d="M83.42,175.17a110.51,110.51,0,0,0-13.75,2.54,174.6,174.6,0,0,1,13.49-21.06,3,3,0,0,1,.51-.42L83.73,175Z" transform="translate(-30.91 -19.56)"/>
    <path class="cls-16" d="M149,275.6q0-16.64,0-33.29a9.51,9.51,0,0,1,2.37-1.7c.52.44.35,1,.35,1.57q0,25.29,0,50.58a9.15,9.15,0,0,1-2.38-1.72,72.2,72.2,0,0,0,1.91-8.07C151.51,280.2,151.67,277.47,149,275.6Z" transform="translate(-30.91 -19.56)"/>
    <path class="cls-21" d="M362.08,247.07q-.22-11.22-.45-22.44c-.05-2.29-.14-4.58-.21-6.87,1.08-.44,2,.29,3,.37q0,19.71.05,39.42c0,1.4-1,2-2,2.58-.17-2.57.09-5.16-.32-7.72C362.15,250.63,362.12,248.85,362.08,247.07Z" transform="translate(-30.91 -19.56)"/>
    <path class="cls-18" d="M86.37,218.15a49.18,49.18,0,0,0,5.43.36,2.14,2.14,0,0,1,2,1l.06,7.73c0,.62.06,1.24-.55,1.66a50,50,0,0,0-6.85,6.4,2.48,2.48,0,0,1-.56-2q0-6.62,0-13.21A2.64,2.64,0,0,1,86.37,218.15Z" transform="translate(-30.91 -19.56)"/>
    <path class="cls-22" d="M387.6,122.36c0,.34.09.67.09,1q0,22.89,0,45.78a1.36,1.36,0,0,1-1,1.55l-1.05-.07.27-43.86a5.36,5.36,0,0,0,.06-1.32A2.69,2.69,0,0,1,387.6,122.36Z" transform="translate(-30.91 -19.56)"/>
    <path class="cls-18" d="M366.94,179.58a6.74,6.74,0,0,1-3.52-1.19c-1.41-.88-1.4-2,.05-2.84,2.37-1.37,5-1.73,7.7-2.12a89,89,0,0,1,17.57-.63c5.9.31,11.82.72,17.43,2.89a6.92,6.92,0,0,1,1.08.47c1.74,1,1.75,2.26,0,3.24a10.15,10.15,0,0,1-1.71.68c-.78.26-1.58.46-2.64.77a4.67,4.67,0,0,1,.48-.43c.91-.47,2.36-.62,2.28-1.89s-1.52-1.68-2.6-2.05a43.33,43.33,0,0,0-10.5-2,82.22,82.22,0,0,0-21.71.61,15,15,0,0,0-4.31,1.31c-1.8.93-1.84,1.71-.14,2.83Z" transform="translate(-30.91 -19.56)"/>
    <path class="cls-11" d="M420.26,179.77c0,1.82-1.6,2.19-2.66,3.06-.54.73-1.43.79-2.18,1.11a22.64,22.64,0,0,1-2.67.9,3.36,3.36,0,0,1-.84.15,76.6,76.6,0,0,1-11.76,1.69c-7.09.68-14.19.42-21.28.29a109.54,109.54,0,0,1-18.31-2,11.84,11.84,0,0,1-2.25-.66c-2.06-.71-4.3-.89-6.18-2.14a9.42,9.42,0,0,1-3.2-1.71,2.77,2.77,0,0,1-.95-3.76c-.37,2.34,1.35,3.07,3,3.83a42.58,42.58,0,0,0,10.61,2.89,150.45,150.45,0,0,0,31.15,2c7.28-.23,14.56-.76,21.65-2.67A13,13,0,0,0,420.26,179.77Z" transform="translate(-30.91 -19.56)"/>
    <path class="cls-8" d="M426,176.76,416,175.12c-.53-1.52-.12-3.08-.13-4.62,0-3.12,0-6.24.19-9.44A127.86,127.86,0,0,1,426,176.76Z" transform="translate(-30.91 -19.56)"/>
    <path class="cls-23" d="M331.52,178.07l1,.08c-1.79,1.21-3.48,2.28-5.09,3.45-1.95,1.4-2.83,3.25-2,5.66L327,207l.15,2a2.72,2.72,0,0,1-2-2.69c-.15-1.44-.45-2.85-.69-4.28-.49-4.38-.92-8.76-1.05-13.18-.14-4.59,1.48-7.87,5.48-10Z" transform="translate(-30.91 -19.56)"/>
    <path class="cls-23" d="M63.26,180.1c-1.2,1.26-2.9,1.8-4.16,3-1.47,1.34-3.14,2.55-3.22,4.82q.13,10.44.26,20.89a4.39,4.39,0,0,1-.16,2l-.67-.53a5,5,0,0,1-1.07-2.61,136.27,136.27,0,0,1-.3-18.63c.12-2.51,1.54-4.29,3.27-5.8A13.46,13.46,0,0,1,63.26,180.1Z" transform="translate(-30.91 -19.56)"/>
    <path class="cls-24" d="M86.37,218.15l.07,17.13-2.35,2.87L84,218.24A7.54,7.54,0,0,1,86.37,218.15Z" transform="translate(-30.91 -19.56)"/>
    <path class="cls-25" d="M138.53,293.76c.1.11.29.29.27.31-2.66,3.36-3.21,7.41-3.84,11.45-.75,4.8-2,9.52-2.57,14.35a21.33,21.33,0,0,0,1.19,10.71c.1.26.45.57-.05.8a15.24,15.24,0,0,1-2.07-11.23c1.15-6.71,2.23-13.43,3.47-20.12A10.79,10.79,0,0,1,138.53,293.76Z" transform="translate(-30.91 -19.56)"/>
    <path class="cls-7" d="M282.78,49.32c2.89-1.67,5.73-3.44,8.69-5,3.86-2,6.64-1.25,9.32,2.26,2.79,3.67,4.34,7.92,5.91,12.16,2.95,8,5.35,16.1,7.51,24.29,1.75,6.62,3.45,13.25,4.64,20,.2,1.16-.26,1.36-1.08,1.58a53.05,53.05,0,0,1-10.51,1.82,79,79,0,0,1-8.7.38,157.39,157.39,0,0,1-20.08-2.16A226.59,226.59,0,0,1,248.9,97c-11.42-3.66-22.79-7.49-33.52-13a37.52,37.52,0,0,1-5.73-3.77,1.5,1.5,0,0,1-.26-2.42q9.9-13.08,19.75-26.18c2.15-2.86,4-5.93,6.37-8.61a23.8,23.8,0,0,1,13.33-7.5,28.9,28.9,0,0,1,5.07,6.86c4.12,7.35,6.18,15.34,7.12,23.65.4,3.56.7,7.14,1.38,10.66a14.61,14.61,0,0,0,2,5.65c1.11,1.59,2.26,1.8,3.85.66a13,13,0,0,0,3.16-3.67,65.45,65.45,0,0,0,6-12.4,137.86,137.86,0,0,0,5-15.51A11.21,11.21,0,0,0,282.78,49.32Z" transform="translate(-30.91 -19.56)"/>
    <path class="cls-8" d="M119.71,124.59c11.72,1.52,18.5-6.89,20.16-15.7a26.26,26.26,0,0,0,.37-5c2.09-1.89,3.89-1.25,6.13.14,10.12,6.27,21,11,32.11,15.22,1.73.66,1.86,1.36,1.6,3.09-1.43,9.76-6.42,17.89-11.44,26.07-4.67,7.6-8.81,15.46-10.75,24.29-.18.82-.34,1.64-.51,2.46a1.8,1.8,0,0,1-1.59.32c-2.64-.49-5.35-.57-7.92-1.39-11.07-3.38-22.48-3.4-33.89-3.38a3,3,0,0,1-.53-2.23c.21-11-.55-21.91-.35-32.87.05-3.3,0-6.6,0-9.9,0-.8-.14-1.72.78-2.23A14.87,14.87,0,0,0,119.71,124.59Z" transform="translate(-30.91 -19.56)"/>
    <path class="cls-7" d="M162.45,88.3c6.72.55,13.39,1.44,20,2.52,2.25.37,4.49.78,6.74,1.13a2.21,2.21,0,0,1,1.61,1c4.53,6.28,10.56,10.79,17.08,14.82A145,145,0,0,0,233,119.69a263.64,263.64,0,0,0,28.1,8.66A179.51,179.51,0,0,0,286,133c10.85,1.19,21.71,1.19,32.33-2a29.16,29.16,0,0,0,11.17-5.91,1.78,1.78,0,0,1,1.93-.45c9.78,2.72,19.59,5.38,28.88,9.59a20.19,20.19,0,0,1,3.57,2.18c1.6,1.17,1.57,1.61-.15,2.6-2.74,1.58-5.81,2.19-8.87,2.81A136.38,136.38,0,0,1,336,143.89c-6.61.39-13.21.37-19.8.17-6.17-.19-12.36-.52-18.52-1.17-4.65-.48-9.31-.85-14-1.44-6.23-.81-12.46-1.67-18.64-2.81-7.23-1.32-14.42-2.83-21.59-4.47a48.13,48.13,0,0,1-5.77-1.43,5.67,5.67,0,0,0-2.15-1c-9.81-3.19-19.35-7.08-28.8-11.18-8.89-3.87-17.6-8.08-25.65-13.55-7-4.73-13.21-10.19-18.05-17.13C162.74,89.44,162.11,89,162.45,88.3Z" transform="translate(-30.91 -19.56)"/>
    <path class="cls-16" d="M237,98.44c6.4,2,12.76,4.12,19.2,6a185.86,185.86,0,0,0,31.09,6.64,90.91,90.91,0,0,0,27.89-.67,32.64,32.64,0,0,0,6.62-1.81c.85-.36,1.15-.23,1.3.73.61,3.91,1.28,7.82,2,11.72.18,1-.38,1.51-1.15,2a36.33,36.33,0,0,1-12.9,4.52,70,70,0,0,1-14.53,1,157.32,157.32,0,0,1-31.13-4.43A241.62,241.62,0,0,1,225.1,111a37.63,37.63,0,0,1-7.19-3.57,2.7,2.7,0,0,1,2.4-.32c3.64.61,7.31,1,11,1.42,1.91.23,2.43,0,3.26-1.85a27.35,27.35,0,0,0,1.67-6A3.93,3.93,0,0,1,237,98.44Z" transform="translate(-30.91 -19.56)"/>
    <path class="cls-26" d="M162.45,88.3c6.16,9.32,14.65,16.06,24.11,21.68,11.37,6.77,23.57,11.8,35.87,16.57,5.1,2,10.27,3.8,15.4,5.72.11,0,.76-.13.37.41-.06.09-.32,0-.49.06-3.23-.85-6.47-1.66-9.69-2.55a467.56,467.56,0,0,1-47.82-15.63c-12.23-4.83-24.33-10-35.29-17.39A28.13,28.13,0,0,1,139,92c-1.43-1.72-1.17-2.53.93-3.28a18.74,18.74,0,0,1,5.27-1A98.45,98.45,0,0,1,162.45,88.3Z" transform="translate(-30.91 -19.56)"/>
    <path class="cls-26" d="M282.78,49.32c.84.07.41.66.33,1-2.69,10.29-5.83,20.42-11.44,29.59a10.86,10.86,0,0,1-3.5,3.79c-1.7,1-2.84.75-4-.92-1.73-2.47-2.11-5.37-2.58-8.24-.89-5.39-1.06-10.87-2.28-16.23-1.81-7.95-4.69-15.38-10-21.72-.25-.31-.54-.58-.48-1,3.33-.49,5.73.62,7.62,3.58a56,56,0,0,0,9.39,10.68c3.46,3.21,7.25,3.63,11.49,2.09A28.86,28.86,0,0,0,282.78,49.32Z" transform="translate(-30.91 -19.56)"/>
    <path class="cls-27" d="M237,98.44a30,30,0,0,1-2.18,8.74c-.94,2.09-1.42,2.22-3.67,1.91-4.19-.59-8.4-1.09-12.61-1.62a5,5,0,0,0-.67,0,72.29,72.29,0,0,1-13.47-8,43.63,43.63,0,0,1-8.55-8,1.44,1.44,0,0,1,.07-2.25c2.23-2.51,4.37-5.1,6.5-7.7.65-.8,1-.94,1.65,0,2.66,3.82,6.73,5.82,10.72,7.85a176.29,176.29,0,0,0,20.49,8.41C235.9,98,236.46,98.21,237,98.44Z" transform="translate(-30.91 -19.56)"/>
    <path class="cls-18" d="M147.87,174.09c3.22-.1,6.33.84,9.51,1.07,2.29.56,4.52,1.46,7,1.25.43.81,1.3.79,2,1a27.6,27.6,0,0,1,6.87,2.92c1.81,1.12,2.88,2.58,2.31,4.84-1.39,1.08-2.48,2.56-4.15,3.31-6.76-1.89-13.46-4-20.2-6a4.38,4.38,0,0,1-1.81-.82c-.41-.79.33-1.05.71-1.4a5.11,5.11,0,0,0,1.53-1.86c.32-1.64-.5-2.62-1.86-3.31C149.11,174.8,148.49,174.43,147.87,174.09Z" transform="translate(-30.91 -19.56)"/>
    <path class="cls-13" d="M281.6,162.89a17.72,17.72,0,0,0,14.32-14c.15-.73.35-1.09,1.17-1,2.06.22,4.12.42,6.19.52.91.05.83.49.68,1.09-1.28,5-3.61,9.08-8.91,10.88C290.67,161.87,286.28,163,281.6,162.89Z" transform="translate(-30.91 -19.56)"/>
    <path class="cls-28" d="M257.6,147.82c-4.16-.36-8.14-1.57-12.18-2.51-.86-.21-1.73-.39-2.58-.66-.54-.16-.71,0-.76.52-1.11-2.72-3.06-4.88-5.09-7.37,4.36,1,8.41,1.92,12.46,2.82,2.89.65,5.78,1.3,8.69,1.83,1,.18,1,.44.55,1.23A6.57,6.57,0,0,0,257.6,147.82Z" transform="translate(-30.91 -19.56)"/>
    <path class="cls-28" d="M234.76,142.06c-2.9-.4-5.54-1.66-8.25-2.64a144.84,144.84,0,0,1-23.44-10.77c.62-.52,1.25-.27,1.9-.05q9.22,3.08,18.65,5.51a14.82,14.82,0,0,1,6.51,3.59A47.67,47.67,0,0,1,234.76,142.06Z" transform="translate(-30.91 -19.56)"/>
    <path class="cls-13" d="M261.69,155A121.11,121.11,0,0,1,273,148.92c-1.62,5.7-1.65,10.77,4.6,13.59C273.6,162.79,265.63,159.08,261.69,155Z" transform="translate(-30.91 -19.56)"/>
    <path class="cls-13" d="M278.68,158.45c-2.36,0-4.31-1.46-4.61-3.38s1-3.89,3.34-4.62a5.24,5.24,0,0,1,5.74,1.19,3.32,3.32,0,0,1,.63,3.89A5.46,5.46,0,0,1,278.68,158.45Z" transform="translate(-30.91 -19.56)"/>
    <path class="cls-29" d="M179.39,85.22a120.14,120.14,0,0,1,17.61-5c-1.88,2.2-3.75,4.42-5.63,6.62-.35.4-.83.26-1.26.19Z" transform="translate(-30.91 -19.56)"/>
    <path class="cls-28" d="M263.23,148.81c-1.27-.58-2.7-.17-4-.64l3.9-4.13c.24-.25.5-.5.87-.43,2.16.37,4.31.77,6.85,1.22C268.06,146.3,265.64,147.55,263.23,148.81Z" transform="translate(-30.91 -19.56)"/>
    <path class="cls-30" d="M291,147.29c-1.48,1.14-2.46,1-3.72-.35Z" transform="translate(-30.91 -19.56)"/>
    <path class="cls-14" d="M113.9,123.48c-.54,1.87-.23,3.77-.22,5.65q.12,20.79.3,41.58c-3,.62-6.13.22-9.19.61-2.87.37-5.78.5-8.64,1-1.8.32-2,.16-2-1.74,0-22.08,0-44.15-.1-66.22,0-3.91-.39-7.81.06-11.72.51-4.44,1.57-8.66,4.18-12.4,1.34-1.92,3.25-3,5.49-4.11-1.14,5.61-1,11.07-1.42,16.49-.34,5-1.14,10-.23,15A21.07,21.07,0,0,0,113.9,123.48Z" transform="translate(-30.91 -19.56)"/>
    <path class="cls-18" d="M132.54,179.62c.33-.23.55-.38.76-.55,1.26-1,1.2-1.92-.25-2.66a17.43,17.43,0,0,0-5.64-1.56,82.76,82.76,0,0,0-28.51.91,19.45,19.45,0,0,0-3,1c-.88.35-1.9.74-2,1.82s1,1.16,2,2.05a9.5,9.5,0,0,1-4.53-1.86c-1.14-1-.33-1.82.59-2.38a19.91,19.91,0,0,1,6.82-2.24A98.92,98.92,0,0,1,122,172.82a43.65,43.65,0,0,1,12,1.87c1.25.42,3,.74,3,2.28s-1.58,1.86-2.8,2.29C133.75,179.43,133.3,179.87,132.54,179.62Z" transform="translate(-30.91 -19.56)"/>
    <path class="cls-11" d="M151.61,178.43c.09,1.67-1.45,2.09-2.32,3-.74,1.29-2.07,1.51-3.33,1.86-11.58,3.22-23.41,3.92-35.34,3.72-2,0-3.91,0-5.86,0-.59-.07-1.19,0-1.78,0a8.57,8.57,0,0,1-2-.3c-1.59-.27-3.27-.06-4.78-.83-5.17-.64-10.38-1.14-15.13-3.55-1.94-1-2.4-2.22-1.74-4.22-.32,1.69.66,2.54,2,3.21a35.06,35.06,0,0,0,10.43,2.85,136.23,136.23,0,0,0,26.69,1.29c9.32-.4,18.65-1.1,27.65-4A13.29,13.29,0,0,0,151.61,178.43Z" transform="translate(-30.91 -19.56)"/>
    <path class="cls-31" d="M107.91,73.81c.44,0,.47.24.33.51-1.61,3.05-1.84,6.39-2.13,9.73-.47,5.28-1,10.55-1.1,15.85-.06,4.59.14,9.16,2.2,13.41a1.72,1.72,0,0,1,.05.65,12.07,12.07,0,0,1-2.62-6.92c-.19-9.46-.21-18.93,1.24-28.33A10.58,10.58,0,0,1,107.91,73.81Z" transform="translate(-30.91 -19.56)"/>
    <path d="M123.29,102.77a4.39,4.39,0,0,1,4.47,4.63,4.54,4.54,0,1,1-9.07-.32A4.38,4.38,0,0,1,123.29,102.77Z" transform="translate(-30.91 -19.56)"/>
    <path class="cls-32" d="M117.66,82.29a2.8,2.8,0,0,1,3.13-3.06A3.2,3.2,0,0,1,124,82.36a3.66,3.66,0,0,1-3.29,3.23A3.21,3.21,0,0,1,117.66,82.29Z" transform="translate(-30.91 -19.56)"/>
    <path d="M380.67,107.17a4.41,4.41,0,1,1-8.82.18,4.41,4.41,0,1,1,8.82-.18Z" transform="translate(-30.91 -19.56)"/>
    <path class="cls-32" d="M378.71,79.23A3.13,3.13,0,0,1,382,82.31a3.44,3.44,0,0,1-3.05,3.21,3.11,3.11,0,0,1-3.32-3.34A3,3,0,0,1,378.71,79.23Z" transform="translate(-30.91 -19.56)"/>
    <path class="cls-33" d="M386.45,291.12c-9.9-2.84-18.2-8-24-16.73C370,280.67,377.57,286.78,386.45,291.12Z" transform="translate(-30.91 -19.56)"/>
    <path class="cls-34" d="M414.38,291.72c-1.21,10-.92,19.95-.5,29.95C411.51,313.19,411.74,298.35,414.38,291.72Z" transform="translate(-30.91 -19.56)"/>
    <path class="cls-35" d="M373.91,262.62c3.49,3.59,7.21,6.91,11,10.15s8,6,12,9A55.08,55.08,0,0,1,373.91,262.62Z" transform="translate(-30.91 -19.56)"/>
    <path class="cls-33" d="M113.15,291.05c8.77-4.36,16.41-10.31,23.79-16.63C131.27,283.19,122.93,288.16,113.15,291.05Z" transform="translate(-30.91 -19.56)"/>
    <path class="cls-36" d="M85.16,292.12c2.43,5.18,2.63,24.47.35,30.17C86.05,312.22,86.36,302.15,85.16,292.12Z" transform="translate(-30.91 -19.56)"/>
    <path class="cls-35" d="M102.46,281.8a144.39,144.39,0,0,0,22.76-18.72A55.62,55.62,0,0,1,102.46,281.8Z" transform="translate(-30.91 -19.56)"/>
    <path d="M258.91,372.79a8.33,8.33,0,0,1,.29,7.38c-3,4.61-8.22,4.51-11.23,1.38a6.93,6.93,0,0,1,2.56-11.17,6.68,6.68,0,0,1,7.36,1.56C258.22,372.24,258.57,372.51,258.91,372.79Z" transform="translate(-30.91 -19.56)"/>
    <path d="M259.22,414.5a9.45,9.45,0,0,1,2.37,2.35,7.26,7.26,0,0,1,0,7.68,3.72,3.72,0,0,1-2.67,2.4c-3.24,1.15-6.17.83-8.49-1.95a6.49,6.49,0,0,1-1-7.21,6.13,6.13,0,0,1,5.89-4A7.48,7.48,0,0,1,259.22,414.5Z" transform="translate(-30.91 -19.56)"/>
    <path d="M259.57,456.49c4.77.15,6.82,1.44,7.86,5,1.21,4.08-1.9,8.5-6,8.52s-7-2.08-7.53-5.54c-.59-3.63,1.41-6.58,5.37-7.95C259.36,456.37,259.46,456.38,259.57,456.49Z" transform="translate(-30.91 -19.56)"/>
    <path class="cls-16" d="M259.57,456.49h-.31c-.7-.91,0-1.83,0-2.75-.05-8.11,0-16.22,0-24.33a23.33,23.33,0,0,0-.31-2.48l2.67-2.4c.56.56.33,1.27.33,1.91q0,13.26,0,26.5C261.92,455.74,261.92,455.74,259.57,456.49Z" transform="translate(-30.91 -19.56)"/>
    <path class="cls-16" d="M317.75,424.58c0,.44,0,.88,0,1.33l-2.4,6.22-.29-.07v-2.39q0-12.94,0-25.89c0-.66-.33-1.5.72-1.81.61-.18,1.09-1.09,1.75-.66.5.33.2,1.15.2,1.75Q317.76,413.82,317.75,424.58Z" transform="translate(-30.91 -19.56)"/>
    <path d="M199.67,173.46a70.24,70.24,0,0,1-16.85-5.94A99.2,99.2,0,0,0,202,170.43a38.25,38.25,0,0,0,7.08-.36,83.19,83.19,0,0,0,10.36-1.95,43.28,43.28,0,0,1-15.72-2.61c-8.21-2.78-12.11-8.9-13.47-17a12.4,12.4,0,0,1,0-3.65,11.84,11.84,0,0,0,.06-1.33c-.14-1.82.77-2.77,2.45-3.28a39.9,39.9,0,0,1,24.27.08,116.35,116.35,0,0,1,25.34,12.17c1.76,1.1,2,2.48.58,4.05-1.26,1.42-2.62,2.75-3.94,4.12a8.45,8.45,0,0,1-2.75,2.89c-6.25,5.24-13,9.6-21.19,11a38.88,38.88,0,0,1-14.34-.41A1.51,1.51,0,0,1,199.67,173.46Z" transform="translate(-30.91 -19.56)"/>
    <path d="M273.67,181.39c5,.13,10,0,14.93.43a82.57,82.57,0,0,1,14.43,2c12.55,3.33,13.87,14,10.44,22.35a12.34,12.34,0,0,1-2.31,3.68,9.13,9.13,0,0,1-10.37,2.74,222.77,222.77,0,0,0-36.8-8.82c-5.63-.88-11.32-1.43-17-1.78q-14.85-.92-29.72-.61c-6.6.12-13.2.42-19.8.65a6.51,6.51,0,0,0-1.13.24c-3.67.16-7.33.67-11-.32-6.19-1.67-9.42-7.07-7.82-13.27.75-2.91,2.72-4.8,5.22-6.27a45.88,45.88,0,0,1,5.57-2.29,11.24,11.24,0,0,1,4.36-1.07,111.33,111.33,0,0,1,12.39,0c4.9.27,9.8.71,14.7.86,2.35.07,4.67.45,7,.42a1.49,1.49,0,0,1,1.22.46c8.39.36,16.77.37,25.16.41,3.23.27,6.47.05,9.7.12,3.4.07,6.8-.14,10.2.11Z" transform="translate(-30.91 -19.56)"/>
    <path d="M294.87,217.43c.25.57-.34.49-.53.56a124,124,0,0,1-32.18,7.59c-14,1.31-27.51-1-40.8-5.1a185.71,185.71,0,0,1-24.22-9.39c-.83-.39-1.83-.64-2.13-1.72,1.79-.26,3.45.37,5.1.82,11.68,3.16,23.38,6.14,35.29,8.33a142.25,142.25,0,0,0,45.43,1.4C285.55,219.27,290.23,218.47,294.87,217.43Z" transform="translate(-30.91 -19.56)"/>
    <path class="cls-12" d="M228,180.78c-7.63-.12-15.23-.87-22.86-1.19-5.16-.21-10.36-.59-15.51.46a8.28,8.28,0,0,1-1.32.07c1.28-1.26,3-1.81,4.51-2.71,2.26-1.37,4.77-2.28,6.86-3.95,12.3,3,23.22,0,33-7.65,2.16-1.68,4.24-3.46,6.35-5.19-.95,4.72-3.13,8.93-5.47,13.07A38.67,38.67,0,0,1,228,180.78Z" transform="translate(-30.91 -19.56)"/>
    <path class="cls-12" d="M190.3,144.81c.45,2.35.55,4.76,1.21,7.08a18.57,18.57,0,0,0,13.05,13.43,42.58,42.58,0,0,0,16.8,2.24,19.94,19.94,0,0,1-7,2.27,54.5,54.5,0,0,1-11.33.83,4.78,4.78,0,0,1-1-.23h5.43c-1.61-1-3.39-1-5.1-1.37a34.7,34.7,0,0,1-6.39-2,10.2,10.2,0,0,1-5.94-6A21.38,21.38,0,0,1,190.3,144.81Z" transform="translate(-30.91 -19.56)"/>
    <path class="cls-12" d="M273.05,181.42l-19.44,0a1.56,1.56,0,0,1-.46-.18c6.43,0,12.86,0,19.28,0A1.93,1.93,0,0,1,273.05,181.42Z" transform="translate(-30.91 -19.56)"/>
    <path class="cls-18" d="M358.07,183.84a101.89,101.89,0,0,0,17.29,2.39c6.37.51,12.73.32,19.09.24a80.4,80.4,0,0,0,17.19-1.95,2.93,2.93,0,0,1,.66,0,2,2,0,0,0,1,1.29c3.13,2.22,6.28,4.43,9.37,6.7,1.12.83,2.22,1.45,3.67,1a1.85,1.85,0,0,1,1.15.12.75.75,0,0,1,.34.32c-3.13.53-6.23,1.19-9.37,1.55-6.1.7-12.21,1.26-18.34,1.37-7,.14-14.12.15-21.17,0-6.07-.13-12.13-.65-18.18-1.27a160.69,160.69,0,0,1-20.92-3.35c-.32-.08-.68-.06-.88-.39.57-.56,1.25-.32,1.9-.21,2.09.36,4.25,1.29,6.26.84s3.33-2.35,5-3.62C354.12,187.29,356.37,185.88,358.07,183.84Z" transform="translate(-30.91 -19.56)"/>
    <path class="cls-24" d="M358.07,183.84c.56.44.24.69-.16,1-3.33,2.64-6.67,5.28-10,8a1.9,1.9,0,0,1-1.72.26c-2.42-.42-4.85-.78-7.27-1.17-3-.68-5.78-1.81-8.65-2.75.1-1,1-.77,1.54-.93,6.51-1.93,13-3.81,19.54-5.7.26-.08.51-.2.76-.3C354.23,182.32,356,183.48,358.07,183.84Z" transform="translate(-30.91 -19.56)"/>
    <path class="cls-24" d="M415.36,183.55l2.24-.72q10.17,3.53,20.32,7.09c.44.16,1.37-.06,1.2,1l-8.39,2.38c-.79.29-1.38-.21-2-.56-4.22-2.48-8.36-5.09-12.55-7.62C415.7,184.77,414.67,184.58,415.36,183.55Z" transform="translate(-30.91 -19.56)"/>
    <path class="cls-37" d="M415.36,183.55c-.19.41.07.58.38.77l14.51,8.81a1.55,1.55,0,0,0,.48.13,10.66,10.66,0,0,1-2.93.72l-.54-.12c-.08-.75-.76-.89-1.27-1.19q-5.85-3.54-11.72-7.06c-.51-.31-1.1-.55-1.37-1.16Z" transform="translate(-30.91 -19.56)"/>
    <path class="cls-18" d="M104.48,186.57c4.48,0,9,0,13.43-.06,9.2-.23,18.33-1,27.22-3.59a6.41,6.41,0,0,1,1.16-.09c3.35,2.89,7,5.43,10.4,8.23.46.38,1.08.66,1,1.42-1.76,1.09-3.83,1-5.75,1.37-7.19,1.22-14.43,1.91-21.71,2.5-10.94.89-21.88.47-32.83.56a3.64,3.64,0,0,1-.94-.25c2.35-2,3.69-4.81,5.53-7.22C102.79,188.44,103.32,187.24,104.48,186.57Z" transform="translate(-30.91 -19.56)"/>
    <path class="cls-24" d="M96.19,185.86l5,.32c-.2,1.62-1.6,2.33-2.63,3.25-2.15,1.93-4.24,3.93-6.39,5.86a5.91,5.91,0,0,1-2.08,1.31,97.7,97.7,0,0,1-15-2.08l-1.42-.68Z" transform="translate(-30.91 -19.56)"/>
    <path class="cls-24" d="M157.72,192.48c-3.49-2.77-7-5.52-10.45-8.31-.42-.33-1.23-.48-1-1.34l3-1.38c6.76,2,13.53,4,20.28,6.09.63.19,1.51,0,1.81.93A97.7,97.7,0,0,1,159,192.33,2.53,2.53,0,0,1,157.72,192.48Z" transform="translate(-30.91 -19.56)"/>
    <path class="cls-23" d="M104.48,186.57c-2.12,3.06-4.26,6.11-6.35,9.19a1.86,1.86,0,0,1-1.64.9l-3.68-.06c-.22-.53.17-.85.45-1.16,2.72-3,5.92-5.43,8.69-8.34a2.28,2.28,0,0,1,1-.52Z" transform="translate(-30.91 -19.56)"/>
    <path class="cls-38" d="M103,186.58c-3,2.89-6,5.76-9,8.66-.42.41-1.06.66-1.14,1.36h-2.7c3.4-3.1,6.8-6.19,10.19-9.31.35-.32.88-.52.91-1.11Z" transform="translate(-30.91 -19.56)"/>
    <path class="cls-39" d="M263.84,168.1c5.82,6.83,13.34,9.27,22.41,8.71C276.05,181.58,268.85,180,263.84,168.1Z" transform="translate(-30.91 -19.56)"/>
    <path class="cls-40" d="M347.69,293c-.44,1-1.38,1.57-2,2.4-2.43,3.08-3.09,6.79-3.67,10.48s-.9,7.42-1.34,11.13a97.07,97.07,0,0,1,.94-15C342.15,297.86,344.54,295.18,347.69,293Z" transform="translate(-30.91 -19.56)"/>
    <path d="M352.79,327.75c-1.88,0-3.13-1.51-3.1-3.61a3.34,3.34,0,0,1,3.17-3.42,3.74,3.74,0,0,1,3.18,3.72A3.21,3.21,0,0,1,352.79,327.75Z" transform="translate(-30.91 -19.56)"/>
    <path d="M147.27,324.26a3.18,3.18,0,0,1-3.21,3.49,3.23,3.23,0,0,1-3.13-3.43,3.67,3.67,0,0,1,3.29-3.6A3.35,3.35,0,0,1,147.27,324.26Z" transform="translate(-30.91 -19.56)"/>
    <path class="cls-41" d="M412.9,184.45c4.44,2.32,8.62,5.1,13,7.62.57.33,1.15.67,1.71,1,1,.67-.28.47-.29.75-2.34.75-4.08-.29-5.87-1.67-2.95-2.29-6-4.39-9.08-6.56-.55-.39-1-.7,0-1.09Z" transform="translate(-30.91 -19.56)"/>
    <path class="cls-13" d="M217.41,162.94a33.48,33.48,0,0,1-15.9-3.95,9.73,9.73,0,0,1-3.65-3.85,22.81,22.81,0,0,1-2.86-9.73c-.05-.66,0-1.12.81-1.33a43.89,43.89,0,0,1,7.45-1.16c.45,0,.84-.13.75.66C202.84,153.19,208.12,160.74,217.41,162.94Z" transform="translate(-30.91 -19.56)"/>
    <path class="cls-15" d="M222.22,162.67c4.5-2.28,6.54-6.06,4.4-13.65A113.53,113.53,0,0,1,238,155.1,28.53,28.53,0,0,1,222.22,162.67Z" transform="translate(-30.91 -19.56)"/>
    <path class="cls-15" d="M220.29,150.17c2.9,0,5.35,2.06,5.31,4.46,0,2.2-2.14,3.93-4.78,3.91-2.89,0-5.33-2.09-5.3-4.49S217.57,150.16,220.29,150.17Z" transform="translate(-30.91 -19.56)"/>
    <path class="cls-42" d="M210.39,148.17c-1-.19-1.91-.5-1.95-1.68s.84-1.54,1.79-1.51,1.92.46,2,1.62S211.34,148,210.39,148.17Z" transform="translate(-30.91 -19.56)"/>
    <path class="cls-43" d="M199.72,182.51c9.86,0,19.67,1.2,29.53,1.32,18.38.23,36.75.39,55.12.76a75.8,75.8,0,0,1,17.16,1.91c.38.09.76.2,1.13.32,9.09,2.8,12.34,11.69,7.25,19.8-2.07,3.3-4.82,4.28-8.5,3.06A215.81,215.81,0,0,0,249,199.2a406.88,406.88,0,0,0-56.41.36,19,19,0,0,1-7.78-.9,6.55,6.55,0,0,1-4.57-5.69c-.41-3,.27-5.57,2.92-7.35a20.1,20.1,0,0,1,10-3.08C195.35,182.37,197.54,182.51,199.72,182.51Z" transform="translate(-30.91 -19.56)"/>
    <path class="cls-44" d="M235.81,167.53c-5.18,12.07-12.05,14.2-22.3,9.33C222.47,177.37,230.05,174.63,235.81,167.53Z" transform="translate(-30.91 -19.56)"/>
    <path d="M219.63,188.81a446.25,446.25,0,0,1,49,2.14c11.64,1.05,23,3.73,34.17,6.91,1.05.3,2.05.71,1.63,2s-1.43,1.09-2.5.8c-9.55-2.66-19.15-5.13-29-6.27-9.51-1.1-19.07-1.76-28.63-2.23-12.65-.63-25.31-.62-38-.25-5.09.15-10.18.41-15.27.62l-1.35.05c-1,0-1.69-.33-1.73-1.38s.69-1.5,1.62-1.56c2.51-.16,5-.3,7.55-.38C204.3,189,211.47,188.75,219.63,188.81Z" transform="translate(-30.91 -19.56)"/>
  </g>
</svg>
